<svg width="120" height="120" viewBox="0 0 120 120" fill="none" xmlns="http://www.w3.org/2000/svg">
<g clip-path="url(#clip0_696_5417)">
<path fill-rule="evenodd" clip-rule="evenodd" d="M62.9542 6.00002L63 6L63.0458 6.00002C63.5981 6.00061 64.0453 6.44881 64.0447 7.00109C64.0441 7.55338 63.5959 8.00061 63.0437 8.00002L63 8L62.9563 8.00002C62.404 8.00061 61.9559 7.55338 61.9553 7.00109C61.9547 6.44881 62.4019 6.00061 62.9542 6.00002ZM48.2709 9.71206C48.4819 10.2225 48.2392 10.8073 47.7288 11.0183L47.6487 11.0514C47.1388 11.2636 46.5535 11.0221 46.3414 10.5122C46.1293 10.0023 46.3707 9.41694 46.8806 9.20483L46.9647 9.16997C47.4751 8.95897 48.0599 9.20167 48.2709 9.71206ZM77.7291 9.71207C77.9401 9.20168 78.5249 8.95897 79.0353 9.16997L79.1194 9.20483C79.6293 9.41694 79.8707 10.0023 79.6586 10.5122C79.4465 11.0221 78.8612 11.2636 78.3513 11.0514L78.2712 11.0183C77.7608 10.8073 77.5181 10.2225 77.7291 9.71207ZM34.748 18.2708C35.1381 18.6618 35.1374 19.2949 34.7464 19.6851L34.6851 19.7464C34.295 20.1374 33.6618 20.1381 33.2708 19.748C32.8799 19.3579 32.8792 18.7247 33.2693 18.3337L33.3338 18.2693C33.7247 17.8792 34.3579 17.8799 34.748 18.2708ZM91.252 18.2708C91.6422 17.8799 92.2753 17.8792 92.6663 18.2693L92.7307 18.3338C93.1208 18.7247 93.1201 19.3579 92.7292 19.748C92.3382 20.1381 91.7051 20.1374 91.3149 19.7464L91.2536 19.6851C90.8626 19.295 90.8619 18.6618 91.252 18.2708ZM25.5122 31.3414C26.0221 31.5535 26.2636 32.1388 26.0514 32.6487L26.0183 32.7288C25.8073 33.2392 25.2225 33.4819 24.7121 33.2709C24.2017 33.0599 23.959 32.4751 24.17 31.9647L24.2048 31.8806C24.4169 31.3707 25.0023 31.1293 25.5122 31.3414ZM100.488 31.3414C100.998 31.1293 101.583 31.3707 101.795 31.8806L101.83 31.9647C102.041 32.4751 101.798 33.0599 101.288 33.2709C100.778 33.4819 100.193 33.2392 99.9818 32.7288L99.9486 32.6487C99.7365 32.1388 99.9779 31.5535 100.488 31.3414ZM22.0011 46.9553C22.5534 46.9559 23.0006 47.4041 23 47.9563L23 48L23 48.0437C23.0006 48.596 22.5534 49.0441 22.0011 49.0447C21.4488 49.0453 21.0006 48.5981 21 48.0458L21 48L21 47.9542C21.0006 47.4019 21.4488 46.9547 22.0011 46.9553ZM103.999 46.9553C104.551 46.9547 104.999 47.4019 105 47.9542L105 48L105 48.0458C104.999 48.5981 104.551 49.0453 103.999 49.0447C103.447 49.0441 102.999 48.5959 103 48.0437L103 48L103 47.9563C102.999 47.404 103.447 46.9559 103.999 46.9553ZM24.7121 62.7291C25.2225 62.5181 25.8073 62.7608 26.0183 63.2712L26.0514 63.3513C26.2636 63.8612 26.0221 64.4465 25.5122 64.6586C25.0023 64.8707 24.4169 64.6293 24.2048 64.1194L24.17 64.0353C23.959 63.5249 24.2017 62.9401 24.7121 62.7291ZM101.288 62.7291C101.798 62.9401 102.041 63.5249 101.83 64.0353L101.795 64.1194C101.583 64.6293 100.998 64.8707 100.488 64.6586C99.9779 64.4465 99.7364 63.8612 99.9486 63.3513L99.9817 63.2712C100.193 62.7608 100.778 62.5181 101.288 62.7291ZM33.2708 76.252C33.6618 75.8619 34.2949 75.8626 34.6851 76.2536L34.7464 76.3149C35.1374 76.705 35.1381 77.3382 34.748 77.7291C34.3579 78.1201 33.7247 78.1208 33.3337 77.7307L33.2693 77.6662C32.8792 77.2753 32.8799 76.6421 33.2708 76.252ZM46.3414 85.4878C46.5535 84.9779 47.1388 84.7364 47.6487 84.9486L47.7288 84.9817C48.2392 85.1927 48.4819 85.7775 48.2709 86.2879C48.0599 86.7983 47.4751 87.041 46.9647 86.83L46.8806 86.7952C46.3707 86.5831 46.1293 85.9977 46.3414 85.4878ZM63 16C45.3269 16 31 30.3269 31 48C31 64.0666 42.8405 77.3676 58.2715 79.6531L58.8326 81.7472C42.0208 79.6925 29 65.3668 29 48C29 29.2223 44.2223 14 63 14C81.7777 14 97 29.2223 97 48C97 57.1721 93.3681 65.4959 87.464 71.6118L84.5763 71.6321C90.9818 65.7806 95 57.3595 95 48C95 30.3269 80.6731 16 63 16Z" fill="black"/>
<path d="M74.8692 73.4471L70.6439 57.6781C69.6465 53.9555 65.7808 51.7569 62.0096 52.7673C58.2385 53.7778 55.99 57.6147 56.9875 61.3373L65.8273 94.3279C66.2165 95.7805 64.5816 96.9512 63.312 96.129C56.6187 91.0814 50.261 100.724 55.8642 105.684L64.7109 113.516C69.8291 118.047 73.9266 120.507 80.5894 118.722L93.0007 115.396C98.3561 113.961 101.083 108.336 103.077 103.163C104.108 100.489 105.072 97.6545 105.681 95.1457C106.573 91.4721 106.718 87.4759 105.356 83.9497C103.343 78.7418 98.2311 75.0364 92.2036 75.0788L77.1726 75.1847C76.0915 75.1924 75.1457 74.4788 74.8692 73.4471Z" stroke="black" stroke-width="2"/>
</g>
<defs>
<clipPath id="clip0_696_5417">
<rect width="120" height="120" fill="white"/>
</clipPath>
</defs>
</svg>
