<svg width="120" height="120" viewBox="0 0 120 120" fill="none" xmlns="http://www.w3.org/2000/svg">
<path d="M68.9494 51.1934C68.9494 51.1934 75.0518 54.6382 81.2032 54.0476C87.3711 53.4571 90.3402 52.5877 91.2096 52.3252C92.0626 52.0628 92.932 52.4565 93.1945 53.047C93.457 53.6375 94.3263 57.6237 94.6544 59.0837C94.9825 60.5436 95.1137 61.5935 94.6544 61.8067C94.1951 62.0036 87.8304 64.4641 81.7937 64.5298C75.7571 64.5954 72.9192 64.0048 72.9192 64.0048L68.0801 56.6559L68.9494 51.2262V51.1934Z" fill="white" stroke="black" stroke-width="1.83" stroke-linecap="round" stroke-linejoin="round"/>
<path d="M96.8861 60.7397C96.8861 60.7397 95.2128 60.7233 94.3598 58.9352C93.5068 57.1472 92.8507 54.5718 93.4412 52.8002C93.7529 51.8487 96.0495 50.7333 97.5422 50.4872C99.1334 50.2083 100.265 50.2904 101.118 51.1434C101.971 51.9964 102.053 52.8002 102.053 52.8002C102.053 52.8002 103.727 52.226 104.58 53.0298C105.433 53.8172 105.761 55.9825 104.235 58.0986C102.709 60.2147 99.724 60.7561 96.8861 60.7561V60.7397Z" fill="white" stroke="black" stroke-width="1.83" stroke-linecap="round" stroke-linejoin="round"/>
<path d="M102.054 52.7842C102.054 52.7842 102.333 53.8504 100.594 55.2284C99.1341 56.393 98.6092 56.8688 98.6748 57.7874C98.7405 58.706 99.4786 59.3786 100.725 58.9192C101.988 58.4599 103.317 57.4757 103.711 55.7533C103.875 55.0807 103.858 54.5066 103.776 54.0637" stroke="black" stroke-width="1.83" stroke-linecap="round" stroke-linejoin="round"/>
<path d="M68.4913 117.53C68.0976 117.793 59.4855 118.055 58.6161 117.99C57.7467 117.924 45.4272 117.333 45.4272 117.333C45.4272 117.333 45.4929 102.882 45.4929 102.225C45.4929 101.569 46.2967 101.093 46.2967 100.765C46.2967 100.437 46.1654 98.7805 46.1654 98.7805L53.6456 85.6574L54.3018 85.4605L58.6161 85.2637C58.6161 85.2637 60.6665 85.4605 61.6672 86.0511C62.6514 86.6416 63.7833 88.5117 64.1114 89.6271C64.4394 90.759 65.7682 110.952 65.7682 110.952C65.7682 110.952 68.0484 113.232 68.4913 117.514V117.53Z" fill="white" stroke="black" stroke-width="1.83" stroke-linecap="round" stroke-linejoin="round"/>
<path d="M47.8877 100.866L56.7787 101.063" stroke="black" stroke-width="1.83" stroke-linecap="round" stroke-linejoin="round"/>
<path d="M58.0903 91.6123L58.8285 100.487C58.8285 100.487 58.3528 101.602 58.3528 101.881C58.3528 102.291 58.484 106.868 58.5989 110.854" fill="white"/>
<path d="M58.0903 91.6123L58.8285 100.487C58.8285 100.487 58.3528 101.602 58.3528 101.881C58.3528 102.291 58.484 106.868 58.5989 110.854" stroke="black" stroke-width="1.83" stroke-linecap="round" stroke-linejoin="round"/>
<path d="M58.501 116.268C58.6486 114.956 59.3212 110.658 61.6013 109.772C63.4222 109.067 65.1446 110.248 66.2273 111.511" fill="white"/>
<path d="M58.501 116.268C58.6486 114.956 59.3212 110.658 61.6013 109.772C63.4222 109.067 65.1446 110.248 66.2273 111.511" stroke="black" stroke-width="1.83" stroke-linecap="round" stroke-linejoin="round"/>
<path d="M63.2088 109.788C62.8643 110.001 62.7003 110.477 62.8971 111.002C63.2908 112.052 65.3578 113.512 66.0139 113.249C66.6865 112.987 66.6864 112.331 66.4896 111.806" stroke="black" stroke-width="1.83" stroke-linecap="round" stroke-linejoin="round"/>
<path d="M54.6788 9.34769C54.6788 9.34769 52.7104 3.60631 49.9053 2.49084C46.1324 0.998079 40.916 2.85172 39.5709 8.85557C38.2421 14.7282 41.6542 16.7131 42.9501 17.6973C44.246 18.6979 46.4277 19.2885 46.4277 19.2885L52.5956 17.9926L54.6788 9.34769Z" fill="white" stroke="black" stroke-width="1.83" stroke-linecap="round" stroke-linejoin="round"/>
<path d="M68.0967 11.6441C68.0967 11.6441 70.9182 8.16642 73.3624 7.06736C75.987 5.86987 80.3833 7.21499 81.9745 11.5784C83.5656 15.9583 82.4174 20.7811 78.9398 22.1754C75.4621 23.5697 72.7719 22.7659 72.7719 22.7659L69.5895 21.5684L68.0967 11.6277V11.6441Z" fill="white" stroke="black" stroke-width="1.83" stroke-linecap="round" stroke-linejoin="round"/>
<path d="M52.595 44.5657C52.595 44.5657 45.3609 43.6143 43.5728 38.6439C41.9488 34.1328 43.2611 31.9183 44.5078 27.9321C45.7709 23.9624 46.099 21.1081 46.1646 20.2551C46.2302 19.4021 46.4927 16.2197 48.3463 13.4967C50.5445 10.2979 53.6776 7.68966 63.2247 9.1004C65.4885 9.42848 67.4733 9.98621 69.3269 11.1345C72.5093 13.1194 74.6583 15.9408 74.7239 21.3049C74.7895 26.669 73.7232 27.4072 74.5926 31.3113C75.4456 35.2155 75.4456 39.2016 73.3295 42.1051C71.2134 45.025 69.0153 45.6156 65.5705 46.2061C62.1256 46.7967 58.1559 45.7468 58.1559 45.7468L52.595 44.5493V44.5657Z" fill="white" stroke="black" stroke-width="1.83" stroke-linecap="round" stroke-linejoin="round"/>
<path d="M49.0843 44.633C49.0843 44.633 54.9896 44.5017 56.4988 44.6986C58.0243 44.8954 67.8996 47.5529 68.4901 48.4715C69.0971 49.3901 69.7532 52.5069 71.0819 56.2798C72.4106 60.0527 74.1331 62.907 74.0018 67.5493C73.8706 72.1916 72.4763 75.374 69.3595 77.2932C66.2428 79.2125 61.8629 78.2939 60.5506 78.2939H58.8282L42.6539 75.2427C42.6539 75.2427 40.2754 74.4389 39.6684 73.914C39.0615 73.3891 39.0614 72.3884 38.9302 70.2723C38.799 68.1562 38.4053 57.4937 38.4053 57.4937L38.9302 55.0331L42.8999 46.421C42.8999 46.421 43.835 44.9118 44.2451 44.6494C44.6388 44.3869 49.0678 44.633 49.0678 44.633H49.0843Z" fill="white" stroke="black" stroke-width="1.83" stroke-linecap="round" stroke-linejoin="round"/>
<path d="M42.047 75.0457C42.047 75.0457 40.5215 74.9801 40.2591 75.5706C39.9966 76.1776 38.9303 80.8035 38.8647 81.2792C38.799 81.7385 38.8647 81.9354 39.1928 82.1322C39.5208 82.3291 41.8502 82.9196 41.8502 82.9196L46.6894 84.5764L46.8206 89.678L47.0175 91.7941C47.0175 91.7941 48.7399 93.3853 48.9367 93.4509C49.1335 93.5165 52.7752 94.0415 53.6446 94.0415C54.514 94.0415 57.0895 94.0415 58.6806 91.2528C60.2718 88.4641 61.3381 83.9694 61.5349 83.4281C61.7318 82.9032 62.1911 82.8376 62.1911 82.8376C62.1911 82.8376 64.1103 83.0344 64.3072 82.8376C64.504 82.6407 64.9634 79.2451 64.9634 79.2451L55.3671 76.8829L42.047 75.0293V75.0457Z" fill="white" stroke="black" stroke-width="1.83" stroke-linecap="round" stroke-linejoin="round"/>
<path d="M38.8818 81.2781C38.8818 81.2781 40.2762 79.8181 40.8012 79.6869L41.326 79.5557C41.326 79.5557 55.3678 81.4093 55.9091 81.4093C56.4505 81.4093 58.1565 81.6718 58.6978 82.1475C59.2227 82.6068 59.354 83.2794 59.0915 85.133C58.829 86.9866 57.0411 90.8908 56.1717 92.0227C55.3186 93.1545 54.2524 93.5482 53.5962 93.6138C52.9401 93.6795 52.4643 93.7451 52.4643 93.7451" fill="white"/>
<path d="M38.8818 81.2781C38.8818 81.2781 40.2762 79.8181 40.8012 79.6869L41.326 79.5557C41.326 79.5557 55.3678 81.4093 55.9091 81.4093C56.4505 81.4093 58.1565 81.6718 58.6978 82.1475C59.2227 82.6068 59.354 83.2794 59.0915 85.133C58.829 86.9866 57.0411 90.8908 56.1717 92.0227C55.3186 93.1545 54.2524 93.5482 53.5962 93.6138C52.9401 93.6795 52.4643 93.7451 52.4643 93.7451" stroke="black" stroke-width="1.83" stroke-linecap="round" stroke-linejoin="round"/>
<path d="M44.1471 81.4102L43.9174 82.214L43.7861 83.395" stroke="black" stroke-width="1.83" stroke-linecap="round" stroke-linejoin="round"/>
<path d="M58.8939 83.4096C58.8939 83.4096 43.179 81.0803 42.1783 81.1459C41.1777 81.2115 40.8496 81.3427 40.8496 81.3427" stroke="black" stroke-width="1.83" stroke-linecap="round" stroke-linejoin="round"/>
<path d="M62.1419 31.5578C62.1419 31.5578 64.8813 31.279 64.9141 30.4424C64.9798 29.1957 62.6997 28.5395 61.2725 28.7036C59.8454 28.8676 59.6814 29.4253 59.7634 29.901C59.8454 30.3768 61.3545 31.443 62.1419 31.5742V31.5578Z" fill="white" stroke="black" stroke-width="1.83" stroke-linecap="round" stroke-linejoin="round"/>
<path d="M19.3281 89.4323C19.3281 89.4323 40.2431 83.0183 41.6538 82.6738C44.3113 82.0341 48.6747 82.0013 49.741 82.6738C50.8072 83.33 51.9227 83.9369 52.6609 87.2505C53.3827 90.5641 53.7763 93.9433 52.9233 95.4689C52.0539 96.9945 46.493 98.6513 42.9826 99.98C39.4721 101.309 33.698 103.819 33.698 103.819C33.698 103.819 33.3043 107.263 30.6469 109.117C27.9894 110.971 24.6758 110.577 23.3635 107.001C22.0348 103.425 21.313 99.8488 21.1162 99.3074C20.9193 98.7825 19 89.9736 19 89.7603C19 89.5471 19.3281 89.4323 19.3281 89.4323Z" fill="white" stroke="black" stroke-width="1.83" stroke-linecap="round" stroke-linejoin="round"/>
<path d="M24.6421 104.654C26.2825 104.359 29.957 103.735 31.3185 103.67C33.1065 103.604 33.6971 103.801 33.6971 103.801" fill="white"/>
<path d="M24.6421 104.654C26.2825 104.359 29.957 103.735 31.3185 103.67C33.1065 103.604 33.6971 103.801 33.6971 103.801" stroke="black" stroke-width="1.83" stroke-linecap="round" stroke-linejoin="round"/>
<path d="M46.9684 84.5447C46.3942 84.0525 45.853 83.7081 45.3936 83.462C45.3936 83.462 43.4908 82.445 41.6699 82.7566" fill="white"/>
<path d="M46.9684 84.5447C46.3942 84.0525 45.853 83.7081 45.3936 83.462C45.3936 83.462 43.4908 82.445 41.6699 82.7566" stroke="black" stroke-width="1.83" stroke-linecap="round" stroke-linejoin="round"/>
<path d="M29.9248 102.555C35.1905 100.701 43.4909 98.027 44.5735 97.5021C45.9022 96.8624 47.6574 95.4516 48.6417 93.9589C48.8877 93.598 49.0682 93.2207 49.1994 92.8598C49.3143 92.5481 49.3799 92.138 49.3963 91.6787" fill="white"/>
<path d="M29.9248 102.555C35.1905 100.701 43.4909 98.027 44.5735 97.5021C45.9022 96.8624 47.6574 95.4516 48.6417 93.9589C48.8877 93.598 49.0682 93.2207 49.1994 92.8598C49.3143 92.5481 49.3799 92.138 49.3963 91.6787" stroke="black" stroke-width="1.83" stroke-linecap="round" stroke-linejoin="round"/>
<path d="M27.5461 75.5201C27.5461 75.5201 26.1518 75.1921 26.4142 73.6009C26.6767 72.0097 29.1373 62.5282 32.5821 56.8361C36.027 51.1439 42.3261 43.9754 46.8372 43.188C51.3483 42.3842 53.7268 47.0265 52.9394 49.5527C52.1356 52.0789 49.1009 53.6537 46.4435 56.3767C43.7861 59.0998 39.4225 66.7768 38.1594 71.1567C36.8963 75.5365 37.0276 76.9801 36.2402 77.587C35.4364 78.1776 33.1234 77.9807 33.1234 77.9807L27.5625 75.5201H27.5461Z" fill="white" stroke="black" stroke-width="1.83" stroke-linecap="round" stroke-linejoin="round"/>
<path d="M27.9238 73.6512C28.8917 73.602 30.4173 73.6512 32.0577 74.2254C33.7309 74.7995 34.8135 75.3737 35.404 75.8822" fill="white"/>
<path d="M27.9238 73.6512C28.8917 73.602 30.4173 73.6512 32.0577 74.2254C33.7309 74.7995 34.8135 75.3737 35.404 75.8822" stroke="black" stroke-width="1.83" stroke-linecap="round" stroke-linejoin="round"/>
<path d="M31.1215 86.7733C31.1215 86.7733 29.7271 88.1676 27.611 87.167C25.4949 86.1663 24.6748 84.1486 24.6912 81.6716C24.724 78.8338 25.7574 77.2918 26.4136 76.5044C27.0697 75.717 27.8735 74.9132 29.6615 75.1757C31.4495 75.4382 35.2224 76.6356 35.6161 78.5549C36.0098 80.4742 35.2224 83.9846 34.2874 85.0509C33.3524 86.1171 33.0243 86.314 32.3682 86.3796C31.712 86.4452 31.2363 86.4452 31.2363 86.4452L31.1051 86.7733H31.1215Z" fill="white" stroke="black" stroke-width="1.83" stroke-linecap="round" stroke-linejoin="round"/>
<path d="M31.2539 86.4463C31.2539 86.4463 31.2867 80.7869 32.845 80.1471C34.4362 79.491 35.0268 80.7377 34.9612 81.9352C34.8956 83.1327 34.2394 84.5926 33.1731 85.4456" stroke="black" stroke-width="1.83" stroke-linecap="round" stroke-linejoin="round"/>
<path d="M55.0233 78.5244L54.646 80.5913" stroke="black" stroke-width="1.83" stroke-linecap="round" stroke-linejoin="round"/>
<path d="M33.2219 104.853C33.2219 104.853 31.6635 104.148 30.7285 105.739C29.8427 107.248 30.6464 108.363 30.9745 108.429" stroke="black" stroke-width="1.83" stroke-linecap="round" stroke-linejoin="round"/>
<path d="M68.9494 51.1934C68.9494 51.1934 75.0518 54.6382 81.2032 54.0476C87.3711 53.4571 90.3402 52.5877 91.2096 52.3252C92.0626 52.0628 92.932 52.4565 93.1945 53.047C93.457 53.6375 94.3263 57.6237 94.6544 59.0837C94.9825 60.5436 95.1137 61.5935 94.6544 61.8067C94.1951 62.0036 87.8304 64.4641 81.7937 64.5298C75.7571 64.5954 72.9192 64.0048 72.9192 64.0048L68.0801 56.6559L68.9494 51.2262V51.1934Z" fill="white" stroke="black" stroke-linecap="round" stroke-linejoin="round"/>
<path d="M96.8861 60.7397C96.8861 60.7397 95.2128 60.7233 94.3598 58.9352C93.5068 57.1472 92.8507 54.5718 93.4412 52.8002C93.7529 51.8487 96.0495 50.7333 97.5422 50.4872C99.1334 50.2083 100.265 50.2904 101.118 51.1434C101.971 51.9964 102.053 52.8002 102.053 52.8002C102.053 52.8002 103.727 52.226 104.58 53.0298C105.433 53.8172 105.761 55.9825 104.235 58.0986C102.709 60.2147 99.724 60.7561 96.8861 60.7561V60.7397Z" fill="white" stroke="black" stroke-linecap="round" stroke-linejoin="round"/>
<path d="M102.054 52.7842C102.054 52.7842 102.333 53.8504 100.594 55.2284C99.1341 56.393 98.6092 56.8688 98.6748 57.7874C98.7405 58.706 99.4786 59.3786 100.725 58.9192C101.988 58.4599 103.317 57.4757 103.711 55.7533C103.875 55.0807 103.858 54.5066 103.776 54.0637" stroke="black" stroke-linecap="round" stroke-linejoin="round"/>
<path d="M68.4913 117.53C68.0976 117.793 59.4855 118.055 58.6161 117.99C57.7467 117.924 45.4272 117.333 45.4272 117.333C45.4272 117.333 45.4929 102.882 45.4929 102.225C45.4929 101.569 46.2967 101.093 46.2967 100.765C46.2967 100.437 46.1654 98.7805 46.1654 98.7805L53.6456 85.6574L54.3018 85.4605L58.6161 85.2637C58.6161 85.2637 60.6665 85.4605 61.6672 86.0511C62.6514 86.6416 63.7833 88.5117 64.1114 89.6271C64.4394 90.759 65.7682 110.952 65.7682 110.952C65.7682 110.952 68.0484 113.232 68.4913 117.514V117.53Z" fill="white" stroke="black" stroke-linecap="round" stroke-linejoin="round"/>
<path d="M47.8877 100.866L56.7787 101.063" stroke="black" stroke-linecap="round" stroke-linejoin="round"/>
<path d="M58.0903 91.6123L58.8285 100.487C58.8285 100.487 58.3528 101.602 58.3528 101.881C58.3528 102.291 58.484 106.868 58.5989 110.854" fill="white"/>
<path d="M58.0903 91.6123L58.8285 100.487C58.8285 100.487 58.3528 101.602 58.3528 101.881C58.3528 102.291 58.484 106.868 58.5989 110.854" stroke="black" stroke-linecap="round" stroke-linejoin="round"/>
<path d="M58.501 116.268C58.6486 114.956 59.3212 110.658 61.6013 109.772C63.4222 109.067 65.1446 110.248 66.2273 111.511" fill="white"/>
<path d="M58.501 116.268C58.6486 114.956 59.3212 110.658 61.6013 109.772C63.4222 109.067 65.1446 110.248 66.2273 111.511" stroke="black" stroke-linecap="round" stroke-linejoin="round"/>
<path d="M63.2088 109.788C62.8643 110.001 62.7003 110.477 62.8971 111.002C63.2908 112.052 65.3578 113.512 66.0139 113.249C66.6865 112.987 66.6864 112.331 66.4896 111.806" stroke="black" stroke-linecap="round" stroke-linejoin="round"/>
<path d="M54.6788 9.34769C54.6788 9.34769 52.7104 3.60631 49.9053 2.49084C46.1324 0.998079 40.916 2.85172 39.5709 8.85557C38.2421 14.7282 41.6542 16.7131 42.9501 17.6973C44.246 18.6979 46.4277 19.2885 46.4277 19.2885L52.5956 17.9926L54.6788 9.34769Z" fill="white" stroke="black" stroke-linecap="round" stroke-linejoin="round"/>
<path d="M68.0967 11.6441C68.0967 11.6441 70.9182 8.16642 73.3624 7.06736C75.987 5.86987 80.3833 7.21499 81.9745 11.5784C83.5656 15.9583 82.4174 20.7811 78.9398 22.1754C75.4621 23.5697 72.7719 22.7659 72.7719 22.7659L69.5895 21.5684L68.0967 11.6277V11.6441Z" fill="white" stroke="black" stroke-linecap="round" stroke-linejoin="round"/>
<path d="M52.595 44.5657C52.595 44.5657 45.3609 43.6143 43.5728 38.6439C41.9488 34.1328 43.2611 31.9183 44.5078 27.9321C45.7709 23.9624 46.099 21.1081 46.1646 20.2551C46.2302 19.4021 46.4927 16.2197 48.3463 13.4967C50.5445 10.2979 53.6776 7.68966 63.2247 9.1004C65.4885 9.42848 67.4733 9.98621 69.3269 11.1345C72.5093 13.1194 74.6583 15.9408 74.7239 21.3049C74.7895 26.669 73.7232 27.4072 74.5926 31.3113C75.4456 35.2155 75.4456 39.2016 73.3295 42.1051C71.2134 45.025 69.0153 45.6156 65.5705 46.2061C62.1256 46.7967 58.1559 45.7468 58.1559 45.7468L52.595 44.5493V44.5657Z" fill="white" stroke="black" stroke-linecap="round" stroke-linejoin="round"/>
<path d="M49.0843 44.633C49.0843 44.633 54.9896 44.5017 56.4988 44.6986C58.0243 44.8954 67.8996 47.5529 68.4901 48.4715C69.0971 49.3901 69.7532 52.5069 71.0819 56.2798C72.4106 60.0527 74.1331 62.907 74.0018 67.5493C73.8706 72.1916 72.4763 75.374 69.3595 77.2932C66.2428 79.2125 61.8629 78.2939 60.5506 78.2939H58.8282L42.6539 75.2427C42.6539 75.2427 40.2754 74.4389 39.6684 73.914C39.0615 73.3891 39.0614 72.3884 38.9302 70.2723C38.799 68.1562 38.4053 57.4937 38.4053 57.4937L38.9302 55.0331L42.8999 46.421C42.8999 46.421 43.835 44.9118 44.2451 44.6494C44.6388 44.3869 49.0678 44.633 49.0678 44.633H49.0843Z" fill="white" stroke="black" stroke-linecap="round" stroke-linejoin="round"/>
<path d="M42.047 75.0457C42.047 75.0457 40.5215 74.9801 40.2591 75.5706C39.9966 76.1776 38.9303 80.8035 38.8647 81.2792C38.799 81.7385 38.8647 81.9354 39.1928 82.1322C39.5208 82.3291 41.8502 82.9196 41.8502 82.9196L46.6894 84.5764L46.8206 89.678L47.0175 91.7941C47.0175 91.7941 48.7399 93.3853 48.9367 93.4509C49.1335 93.5165 52.7752 94.0415 53.6446 94.0415C54.514 94.0415 57.0895 94.0415 58.6806 91.2528C60.2718 88.4641 61.3381 83.9694 61.5349 83.4281C61.7318 82.9032 62.1911 82.8376 62.1911 82.8376C62.1911 82.8376 64.1103 83.0344 64.3072 82.8376C64.504 82.6407 64.9634 79.2451 64.9634 79.2451L55.3671 76.8829L42.047 75.0293V75.0457Z" fill="white" stroke="black" stroke-linecap="round" stroke-linejoin="round"/>
<path d="M38.8818 81.2781C38.8818 81.2781 40.2762 79.8181 40.8012 79.6869L41.326 79.5557C41.326 79.5557 55.3678 81.4093 55.9091 81.4093C56.4505 81.4093 58.1565 81.6718 58.6978 82.1475C59.2227 82.6068 59.354 83.2794 59.0915 85.133C58.829 86.9866 57.0411 90.8908 56.1717 92.0227C55.3186 93.1545 54.2524 93.5482 53.5962 93.6138C52.9401 93.6795 52.4643 93.7451 52.4643 93.7451" fill="white"/>
<path d="M38.8818 81.2781C38.8818 81.2781 40.2762 79.8181 40.8012 79.6869L41.326 79.5557C41.326 79.5557 55.3678 81.4093 55.9091 81.4093C56.4505 81.4093 58.1565 81.6718 58.6978 82.1475C59.2227 82.6068 59.354 83.2794 59.0915 85.133C58.829 86.9866 57.0411 90.8908 56.1717 92.0227C55.3186 93.1545 54.2524 93.5482 53.5962 93.6138C52.9401 93.6795 52.4643 93.7451 52.4643 93.7451" stroke="black" stroke-linecap="round" stroke-linejoin="round"/>
<path d="M44.1471 81.4102L43.9174 82.214L43.7861 83.395" stroke="black" stroke-linecap="round" stroke-linejoin="round"/>
<path d="M58.8939 83.4096C58.8939 83.4096 43.179 81.0803 42.1783 81.1459C41.1777 81.2115 40.8496 81.3427 40.8496 81.3427" stroke="black" stroke-linecap="round" stroke-linejoin="round"/>
<path d="M62.1419 31.5578C62.1419 31.5578 64.8813 31.279 64.9141 30.4424C64.9798 29.1957 62.6997 28.5395 61.2725 28.7036C59.8454 28.8676 59.6814 29.4253 59.7634 29.901C59.8454 30.3768 61.3545 31.443 62.1419 31.5742V31.5578Z" fill="white" stroke="black" stroke-linecap="round" stroke-linejoin="round"/>
<path d="M19.3281 89.4323C19.3281 89.4323 40.2431 83.0183 41.6538 82.6738C44.3113 82.0341 48.6747 82.0013 49.741 82.6738C50.8072 83.33 51.9227 83.9369 52.6609 87.2505C53.3827 90.5641 53.7763 93.9433 52.9233 95.4689C52.0539 96.9945 46.493 98.6513 42.9826 99.98C39.4721 101.309 33.698 103.819 33.698 103.819C33.698 103.819 33.3043 107.263 30.6469 109.117C27.9894 110.971 24.6758 110.577 23.3635 107.001C22.0348 103.425 21.313 99.8488 21.1162 99.3074C20.9193 98.7825 19 89.9736 19 89.7603C19 89.5471 19.3281 89.4323 19.3281 89.4323Z" fill="white" stroke="black" stroke-linecap="round" stroke-linejoin="round"/>
<path d="M24.6421 104.654C26.2825 104.359 29.957 103.735 31.3185 103.67C33.1065 103.604 33.6971 103.801 33.6971 103.801" fill="white"/>
<path d="M24.6421 104.654C26.2825 104.359 29.957 103.735 31.3185 103.67C33.1065 103.604 33.6971 103.801 33.6971 103.801" stroke="black" stroke-linecap="round" stroke-linejoin="round"/>
<path d="M46.9684 84.5447C46.3942 84.0525 45.853 83.7081 45.3936 83.462C45.3936 83.462 43.4908 82.445 41.6699 82.7566" fill="white"/>
<path d="M46.9684 84.5447C46.3942 84.0525 45.853 83.7081 45.3936 83.462C45.3936 83.462 43.4908 82.445 41.6699 82.7566" stroke="black" stroke-linecap="round" stroke-linejoin="round"/>
<path d="M29.9248 102.555C35.1905 100.701 43.4909 98.027 44.5735 97.5021C45.9022 96.8624 47.6574 95.4516 48.6417 93.9589C48.8877 93.598 49.0682 93.2207 49.1994 92.8598C49.3143 92.5481 49.3799 92.138 49.3963 91.6787" fill="white"/>
<path d="M29.9248 102.555C35.1905 100.701 43.4909 98.027 44.5735 97.5021C45.9022 96.8624 47.6574 95.4516 48.6417 93.9589C48.8877 93.598 49.0682 93.2207 49.1994 92.8598C49.3143 92.5481 49.3799 92.138 49.3963 91.6787" stroke="black" stroke-linecap="round" stroke-linejoin="round"/>
<path d="M27.5461 75.5201C27.5461 75.5201 26.1518 75.1921 26.4142 73.6009C26.6767 72.0097 29.1373 62.5282 32.5821 56.8361C36.027 51.1439 42.3261 43.9754 46.8372 43.188C51.3483 42.3842 53.7268 47.0265 52.9394 49.5527C52.1356 52.0789 49.1009 53.6537 46.4435 56.3767C43.7861 59.0998 39.4225 66.7768 38.1594 71.1567C36.8963 75.5365 37.0276 76.9801 36.2402 77.587C35.4364 78.1776 33.1234 77.9807 33.1234 77.9807L27.5625 75.5201H27.5461Z" fill="white" stroke="black" stroke-linecap="round" stroke-linejoin="round"/>
<path d="M27.9238 73.6512C28.8917 73.602 30.4173 73.6512 32.0577 74.2254C33.7309 74.7995 34.8135 75.3737 35.404 75.8822" fill="white"/>
<path d="M27.9238 73.6512C28.8917 73.602 30.4173 73.6512 32.0577 74.2254C33.7309 74.7995 34.8135 75.3737 35.404 75.8822" stroke="black" stroke-linecap="round" stroke-linejoin="round"/>
<path d="M31.1215 86.7733C31.1215 86.7733 29.7271 88.1676 27.611 87.167C25.4949 86.1663 24.6748 84.1486 24.6912 81.6716C24.724 78.8338 25.7574 77.2918 26.4136 76.5044C27.0697 75.717 27.8735 74.9132 29.6615 75.1757C31.4495 75.4382 35.2224 76.6356 35.6161 78.5549C36.0098 80.4742 35.2224 83.9846 34.2874 85.0509C33.3524 86.1171 33.0243 86.314 32.3682 86.3796C31.712 86.4452 31.2363 86.4452 31.2363 86.4452L31.1051 86.7733H31.1215Z" fill="white" stroke="black" stroke-linecap="round" stroke-linejoin="round"/>
<path d="M31.2539 86.4463C31.2539 86.4463 31.2867 80.7869 32.845 80.1471C34.4362 79.491 35.0268 80.7377 34.9612 81.9352C34.8956 83.1327 34.2394 84.5926 33.1731 85.4456" stroke="black" stroke-linecap="round" stroke-linejoin="round"/>
<path d="M55.0233 78.5244L54.646 80.5913" stroke="black" stroke-width="0.69" stroke-linecap="round" stroke-linejoin="round"/>
<path d="M33.2219 104.853C33.2219 104.853 31.6635 104.148 30.7285 105.739C29.8427 107.248 30.6464 108.363 30.9745 108.429" stroke="black" stroke-width="0.69" stroke-linecap="round" stroke-linejoin="round"/>
</svg>
