<svg width="38" height="42" viewBox="0 0 38 42" fill="none" xmlns="http://www.w3.org/2000/svg">
<g clip-path="url(#clip0_260_698)">
<path d="M22.2347 6.50715C22.3254 6.3048 22.4227 6.10878 22.507 5.90643C22.6949 5.47644 22.8765 5.04645 23.058 4.61645C23.2265 4.21808 23.3886 3.80706 23.5636 3.40869C23.6932 3.11781 23.8359 2.83958 23.9785 2.55503C24.0368 2.44121 24.1016 2.41591 24.2378 2.47282C24.7888 2.71311 25.3398 2.94075 25.8973 3.1684C26.3316 3.34545 26.7724 3.50354 27.2002 3.69956C27.9392 4.0347 28.6653 4.39514 29.4043 4.7366C29.4885 4.77454 29.5858 4.78086 29.6765 4.79983C29.6765 4.70498 29.7024 4.60381 29.6895 4.51528C29.6636 4.30661 29.6117 4.09794 29.5793 3.88926C29.5339 3.59206 29.4885 3.28854 29.4496 2.98502C29.4237 2.78267 29.5339 2.70679 29.7284 2.67517C30.4868 2.56135 31.2453 2.43488 32.0037 2.32106C32.4964 2.24518 32.989 2.18195 33.4752 2.11239C33.566 2.09974 33.6567 2.07445 33.7475 2.04916C33.9873 1.99225 34.1105 2.09342 34.1429 2.32739C34.2531 3.07355 34.3828 3.81971 34.4994 4.57219C34.5383 4.82513 34.5708 5.08439 34.6032 5.33732C34.6356 5.57761 34.6745 5.8179 34.7199 6.05187C34.7523 6.21627 34.8754 6.26054 35.031 6.25421C35.4005 6.22892 35.757 6.25421 36.1006 6.4123C36.5544 6.62097 36.9044 6.92449 37.0406 7.4114C37.1054 7.65801 37.1378 7.91727 37.1443 8.1702C37.1508 10.4087 37.1443 12.6535 37.1508 14.892C37.1508 14.9995 37.2286 15.1259 37.3128 15.2081C37.449 15.3346 37.5138 15.4548 37.5138 15.6381C37.5462 16.8396 37.5851 18.041 37.6305 19.2425C37.6499 19.761 37.6953 20.2732 37.7147 20.7917C37.7536 21.5758 37.7796 22.3599 37.812 23.1377C37.8379 23.789 37.8703 24.4466 37.9027 25.0979C37.9287 25.5469 37.9611 25.9895 37.987 26.4385C38 26.7041 37.9675 26.7357 37.7018 26.723C37.3258 26.7104 37.1378 26.8853 37.1378 27.2479C37.1378 29.7203 37.1248 32.1865 37.1443 34.6589C37.1508 35.5315 36.3534 36.3536 35.4264 36.3473C33.1835 36.3283 30.9406 36.3409 28.6977 36.3409C28.3152 36.3409 28.2958 36.3409 28.1856 36.6824C28.03 37.1693 27.9003 37.6688 27.7707 38.1684C27.5697 38.9209 27.3817 39.6797 27.1808 40.4322C27.0576 40.8938 26.9345 41.3491 26.8048 41.8107C26.7594 41.9814 26.6298 42.0257 26.4612 41.9814C25.9232 41.836 25.3852 41.6968 24.8471 41.5514C24.2054 41.3807 23.5636 41.2036 22.9218 41.0329C22.3903 40.8938 21.8587 40.761 21.3272 40.6408C21.0484 40.5776 21.003 40.508 21.0808 40.2425C21.2429 39.686 21.3985 39.1232 21.554 38.5668C21.567 38.5099 21.554 38.396 21.5151 38.3834C21.4568 38.3581 21.3596 38.3707 21.3012 38.4087C20.6076 38.8576 19.8362 39.1043 19.0324 39.2876C18.1508 39.49 17.2627 39.509 16.3811 39.4268C15.4281 39.3382 14.5012 39.1043 13.6325 38.6679C13.0102 38.3518 12.4333 37.985 11.9341 37.5108C11.7785 37.359 11.6294 37.3337 11.409 37.3906C11.0136 37.4918 10.6052 37.5424 10.1968 37.6246C9.61989 37.7321 9.04295 37.8459 8.46601 37.9597C8.29099 37.9913 8.11596 38.0356 7.94094 38.0609C7.79184 38.0862 7.6946 38.0482 7.66219 37.8712C7.59089 37.4791 7.50013 37.0871 7.42234 36.695C7.37048 36.4231 7.27973 36.3536 6.98154 36.3536C5.29611 36.3536 3.60419 36.3536 1.91876 36.3536C1.66595 36.3536 1.40665 36.3156 1.16032 36.2587C0.622274 36.1259 0.291671 35.7529 0.10368 35.2723C0.0258909 35.0826 -0.00652122 34.8613 -0.00652122 34.6526C-3.87961e-05 25.7745 -3.87961e-05 16.9028 -3.87961e-05 8.03109C-3.87961e-05 7.34816 0.298153 6.84861 0.894536 6.50083C1.1668 6.34274 1.19921 6.1973 1.10846 5.88113C0.972326 5.41953 0.862124 4.94527 0.77137 4.47102C0.713028 4.15485 0.751923 4.14852 1.08253 4.0347C1.50388 3.88926 1.91228 3.71221 2.33364 3.55412C2.94298 3.32016 3.55233 3.08619 4.16168 2.85223C4.3756 2.77002 4.60249 2.70047 4.79696 2.58664C4.99143 2.47282 5.1146 2.52341 5.23128 2.6815C5.57485 3.13678 5.91194 3.59206 6.25551 4.04735C6.57314 4.47102 6.89078 4.89468 7.20842 5.31835C7.31862 5.46379 7.41586 5.61555 7.51958 5.76731C7.55847 5.82422 7.59089 5.88746 7.64275 5.93172C7.68812 5.96966 7.77239 6.0076 7.81777 5.98863C7.86315 5.96966 7.90204 5.88113 7.89556 5.82422C7.86315 5.57129 7.81129 5.31835 7.77239 5.06542C7.75943 4.97689 7.73998 4.88836 7.7335 4.79351C7.66219 3.94617 7.59089 3.09884 7.51958 2.2515C7.50661 2.10607 7.43531 1.96063 7.46124 1.82784C7.48068 1.71402 7.56496 1.55593 7.66867 1.51167C8.05762 1.33461 8.46601 1.1955 8.86792 1.04374C9.45134 0.822417 10.0283 0.601098 10.6117 0.373456C10.9034 0.259635 11.1951 0.13949 11.4933 0.0319924C11.7202 -0.0502117 11.8369 0.0193456 11.96 0.234341C12.2647 0.746536 12.5888 1.25241 12.8935 1.75828C13.276 2.39694 13.6455 3.04825 14.0344 3.68692C14.0863 3.76912 14.203 3.80706 14.2937 3.86397C14.3196 3.77544 14.3715 3.69324 14.3715 3.60471C14.3521 2.90914 14.3261 2.20724 14.3067 1.51167C14.3067 1.33461 14.4363 1.26505 14.5919 1.23344C14.6503 1.22079 14.7151 1.23344 14.7799 1.23344C17.1784 1.23344 19.5769 1.23344 21.9754 1.23344C22.3708 1.23344 22.4421 1.30932 22.4421 1.70137C22.4421 2.64355 22.4421 3.59206 22.4421 4.53425C22.4421 4.8441 22.4032 4.87571 22.0921 4.87571C21.1845 4.86939 20.277 4.87571 19.3759 4.86307C19.2398 4.86307 19.0907 4.88836 19.1166 5.04012C19.1296 5.10968 19.2852 5.21718 19.3824 5.21718C20.1733 5.22982 20.9577 5.21718 21.7485 5.21718C22.1634 5.21718 22.1763 5.22982 22.1634 5.62187C22.1634 5.79261 22.118 5.96966 22.1115 6.14039C22.1115 6.25421 22.1375 6.37436 22.1504 6.48818C22.1893 6.48818 22.2347 6.4945 22.2736 6.50083L22.2347 6.50715ZM6.54073 10.0166L6.48239 10.0483C6.48239 10.1431 6.46294 10.2443 6.48239 10.3265C6.54721 10.5541 6.63797 10.7754 6.71576 11.0031C6.82596 11.3382 6.92968 11.6797 7.0334 12.0212C7.18249 12.5081 7.31862 12.995 7.46772 13.4755C7.52606 13.6589 7.50013 13.7791 7.30566 13.8549C6.81948 14.0383 6.32681 14.2217 5.84063 14.4114C5.04977 14.7276 4.25892 15.0437 3.46806 15.3599C3.35138 15.4042 3.22821 15.4168 3.18932 15.2587C3.03374 14.5821 2.88464 13.8992 2.72906 13.2226C2.64479 12.8622 2.55404 12.5017 2.46977 12.1413C2.36605 11.6923 2.26881 11.2434 2.17157 10.7881C2.0873 10.3897 2.00303 9.99134 1.91876 9.59297C1.78911 8.98592 1.65298 8.37887 1.52333 7.77183C1.4974 7.66433 1.51685 7.49992 1.35479 7.53154C1.27052 7.55051 1.1668 7.6833 1.14735 7.77815C1.10846 7.93624 1.1279 8.11329 1.1279 8.2777C1.1279 16.9281 1.1279 25.5785 1.1279 34.2289C1.1279 34.387 1.1279 34.5514 1.1279 34.7095C1.13439 35.0257 1.35479 35.247 1.68539 35.247C3.40972 35.247 5.14053 35.247 6.86485 35.247C6.90375 35.247 6.96209 35.2533 6.97506 35.2343C7.0334 35.1711 7.12415 35.0889 7.11119 35.032C7.05284 34.6905 6.95561 34.3554 6.8843 34.0139C6.80651 33.6535 6.73521 33.2867 6.67038 32.9263C6.59259 32.5153 6.52777 32.1043 6.44998 31.6996C6.34626 31.1747 6.21661 30.6499 6.11289 30.125C6.00269 29.5559 5.91194 28.9742 5.80822 28.4051C5.77581 28.247 5.68505 28.0952 5.49706 28.1395C4.99143 28.2533 4.49877 28.3987 3.99962 28.5252C3.70143 28.6011 3.40324 28.6833 3.09856 28.7339C2.80037 28.7845 2.76796 28.7908 2.66424 28.443C2.59942 28.2343 2.59293 28.013 2.55404 27.7917C2.48273 27.3997 2.41791 27.0013 2.33364 26.6092C2.22992 26.116 2.10027 25.6228 2.00303 25.1296C1.89931 24.6237 1.81504 24.1178 1.71132 23.6119C1.67891 23.4475 1.71132 23.3211 1.87987 23.2705C2.04841 23.2262 2.22992 23.1946 2.40494 23.163C2.80685 23.0871 3.21525 23.0239 3.61716 22.948C4.045 22.8721 4.46635 22.7836 4.8942 22.7014C5.28314 22.6318 5.67209 22.5686 6.06103 22.4927C6.57314 22.3915 7.08526 22.2651 7.60385 22.1639C8.01224 22.0817 8.42712 22.0248 8.84199 21.9552C9.01702 21.9236 9.05591 21.8161 8.9522 21.6833C8.88737 21.6011 8.80958 21.5315 8.73828 21.4493C8.26506 20.8802 7.92149 20.2416 7.66867 19.5523C7.40289 18.8188 7.2538 18.0726 7.26028 17.3075C7.26028 16.8269 7.32511 16.34 7.43531 15.8721C7.55847 15.3599 7.72702 14.8414 7.96038 14.3671C8.19375 13.8992 8.53084 13.4819 8.83551 13.0519C8.9133 12.938 8.9133 12.8685 8.82903 12.7736C8.67993 12.6092 8.53732 12.4448 8.40119 12.2741C7.8826 11.6228 7.364 10.9651 6.84541 10.3138C6.76114 10.2063 6.65093 10.1178 6.54721 10.023L6.54073 10.0166ZM13.989 25.6544C13.9826 25.5848 13.9826 25.5153 13.9631 25.452C13.8464 24.9272 13.7168 24.4087 13.6131 23.8838C13.5029 23.3211 13.4056 22.752 13.3019 22.1892C13.263 21.9868 13.1269 21.8983 12.9454 21.9426C12.8676 21.9615 12.7898 21.9679 12.7185 21.9805C12.3295 22.0501 11.9406 22.1196 11.5516 22.1892C11.0006 22.2967 10.4432 22.4168 9.89215 22.5243C9.48376 22.6065 9.06888 22.6698 8.654 22.7456C7.90852 22.8847 7.16304 23.0302 6.41757 23.1693C6.0351 23.2389 5.65264 23.3084 5.27666 23.378C4.68676 23.4918 4.09037 23.6056 3.50047 23.7194C3.23469 23.77 2.96891 23.8206 2.70962 23.9028C2.64479 23.9218 2.567 24.0735 2.57997 24.1431C2.74203 24.9715 2.92354 25.7998 3.09208 26.6282C3.16339 26.9633 3.22173 27.2985 3.28655 27.6336C3.31896 27.7917 3.42268 27.8739 3.59123 27.836C3.7857 27.798 3.98017 27.7474 4.18113 27.7032C4.81641 27.5514 5.45168 27.387 6.09344 27.2479C6.17123 27.2289 6.34626 27.3427 6.35922 27.4123C6.47591 27.9371 6.56018 28.4683 6.6639 28.9931C6.7352 29.3599 6.80651 29.7203 6.87782 30.0871C6.98802 30.6183 7.11119 31.1494 7.2149 31.6869C7.32511 32.2307 7.40938 32.7745 7.5131 33.3183C7.65571 34.0519 7.81777 34.7854 7.96687 35.5189C8.0641 35.9995 8.15486 36.48 8.25858 36.9606C8.29099 37.0997 8.37526 37.1946 8.5438 37.1567C8.654 37.1314 8.7642 37.0934 8.88089 37.0744C9.30225 36.9986 9.72361 36.9353 10.1385 36.8595C10.9358 36.714 11.7332 36.5559 12.537 36.4105C12.9259 36.3409 13.0167 36.2018 12.913 35.8351C12.8417 35.5632 12.7963 35.2912 12.7444 35.013C12.6731 34.6399 12.6018 34.2732 12.524 33.9001C12.3814 33.2109 12.2388 32.5216 12.0962 31.8324C12.0119 31.4277 11.9276 31.0166 11.8434 30.6119C11.7396 30.0808 11.6359 29.5433 11.5257 29.0121C11.4479 28.6074 11.3637 28.1964 11.2859 27.7917C11.2016 27.3744 11.1238 26.957 11.046 26.5397C11.0136 26.3816 11.0979 26.2931 11.2535 26.2678C12.0832 26.1476 12.913 26.0212 13.7427 25.9073C13.9177 25.882 14.002 25.8188 13.9826 25.6417L13.989 25.6544ZM10.5209 5.86216C10.4885 5.53335 10.7349 5.50805 10.9034 5.40688C11.1108 5.28041 11.2275 5.38791 11.3183 5.53967C11.3961 5.66614 11.4544 5.80525 11.5192 5.94437C11.7591 6.43127 11.9925 6.91817 12.2388 7.39875C12.4722 7.86036 12.7185 8.31564 12.9583 8.77725C13.2241 9.2768 13.5029 9.77635 13.7492 10.2822C13.8659 10.5225 14.0279 10.4909 14.2094 10.4213C14.9484 10.1368 15.681 9.8459 16.42 9.55503C16.6404 9.47282 16.6598 9.39694 16.5366 9.20724C16.2968 8.84048 16.0634 8.4674 15.8365 8.09432C15.48 7.51257 15.1235 6.91817 14.7605 6.33642C14.4493 5.83055 14.1187 5.331 13.814 4.8188C13.438 4.20543 13.088 3.58574 12.712 2.97237C12.3295 2.34003 11.9276 1.72034 11.5452 1.088C11.4479 0.923591 11.3183 0.898298 11.1757 0.948885C10.7997 1.088 10.4367 1.24608 10.0607 1.39152C9.64582 1.55593 9.23094 1.72666 8.80958 1.85945C8.31692 2.01754 8.20023 2.18827 8.2845 2.68782C8.35581 3.1431 8.40119 3.60471 8.44657 4.06632C8.49194 4.53425 8.51139 5.0085 8.55677 5.47644C8.59566 5.83055 8.64752 6.17833 8.71235 6.53244C8.77069 6.86758 8.85496 7.1964 8.9133 7.53154C8.95868 7.80345 8.93923 7.80345 8.50491 8.00579C8.30395 8.10065 8.18727 7.96153 8.09003 7.82242C7.93445 7.60742 7.79184 7.3861 7.62978 7.17743C6.78706 6.05819 5.93787 4.94527 5.09515 3.82603C4.79048 3.42766 4.78399 3.42766 4.32374 3.60471C3.51992 3.91456 2.7161 4.21176 1.91228 4.5216C1.75022 4.58484 1.56223 4.64807 1.62057 4.88836C1.77615 5.53335 1.93173 6.17833 2.08082 6.82332C2.19102 7.28493 2.27529 7.75286 2.3855 8.22079C2.567 9.01121 2.74851 9.79532 2.93002 10.5857C3.03374 11.041 3.11801 11.5026 3.22173 11.9579C3.37082 12.6282 3.53289 13.2985 3.6755 13.9688C3.75977 14.3608 3.81811 14.3924 4.19409 14.2343C4.20058 14.2343 4.20706 14.2343 4.21354 14.228C4.93957 13.9498 5.65912 13.6716 6.38515 13.3997C6.56018 13.3301 6.59259 13.2289 6.53425 13.0582C6.43701 12.7863 6.36571 12.5144 6.28143 12.2361C6.17123 11.8757 6.06751 11.5153 5.95731 11.1548C5.85359 10.8071 5.74988 10.4593 5.64616 10.1115C5.53596 9.73841 5.43224 9.359 5.32204 8.9796C5.21832 8.63181 5.08867 8.29667 4.99791 7.94256C4.97847 7.86036 5.04329 7.6833 5.08867 7.67698C5.31555 7.63904 5.46465 7.34184 5.73691 7.4936C5.77581 7.51889 5.80822 7.56948 5.83415 7.61374C6.06751 7.99947 6.26199 8.41682 6.54073 8.77093C7.40938 9.86487 8.30395 10.9335 9.19205 12.0148C9.37355 12.2361 9.50968 12.2488 9.76898 12.1223C10.0088 12.0085 10.2681 11.92 10.5145 11.8188C10.9099 11.6607 11.0266 11.705 10.9812 11.1991C10.9553 10.9146 10.9293 10.6237 10.9099 10.3391C10.8775 9.8712 10.8451 9.39694 10.8191 8.92901C10.7802 8.2777 10.7543 7.62639 10.7089 6.96876C10.696 6.76009 10.6571 6.55141 10.6247 6.34274C10.5987 6.16569 10.5534 5.98863 10.5274 5.85584L10.5209 5.86216ZM36.7942 16.8206C36.7942 16.8206 36.7813 16.8206 36.7748 16.8206C36.7748 16.6499 36.7748 16.4855 36.7748 16.3147C36.7748 15.9986 36.7294 15.9353 36.4118 15.8658C36.308 15.8468 36.1914 15.8468 36.0876 15.8342C35.7181 15.7962 35.3422 15.7709 34.9727 15.7267C34.5513 15.6761 34.1235 15.6255 33.7021 15.5559C33.4428 15.5117 33.3067 15.6318 33.2159 15.8405C33.1122 16.0871 33.0215 16.3464 32.9177 16.593C32.5677 17.4024 32.2047 18.2054 31.8741 19.0212C31.6666 19.527 31.5046 20.0519 31.336 20.5767C31.2842 20.7411 31.2193 20.8739 31.0119 20.8676C30.7591 20.8676 30.5192 20.7538 30.4998 20.6083C30.3701 19.6914 30.2405 18.7745 30.1173 17.864C30.0849 17.6174 30.0525 17.3707 30.0136 17.1178C29.9293 16.555 29.8191 15.9986 29.7673 15.4358C29.7284 15.0311 29.4367 14.9299 29.0931 15.0627C28.9635 15.1133 28.8338 15.1702 28.7042 15.1955C28.3476 15.2714 27.9976 15.3662 27.6346 15.3978C27.2391 15.4295 26.8307 15.4231 26.4353 15.3978C26.2019 15.3789 26.0788 15.4231 26.0139 15.6381C25.8973 16.0239 25.7676 16.3969 25.6639 16.7827C25.612 16.9787 25.5278 17.1937 25.5667 17.3771C25.6315 17.7501 25.7935 18.1106 25.8778 18.4837C25.9491 18.8062 26.0204 19.1539 25.9815 19.4701C25.9167 19.9886 25.8713 20.5135 25.6704 21.0193C25.3722 21.7845 24.9379 22.4548 24.2637 22.929C23.8294 23.2389 23.6154 23.6119 23.5182 24.0925C23.5117 24.1368 23.5506 24.219 23.5895 24.238C23.6868 24.2822 23.7905 24.3138 23.8942 24.3265C24.2896 24.3707 24.685 24.4024 25.0805 24.4529C25.4435 24.4972 25.8 24.5541 26.163 24.6047C26.3446 24.63 26.4677 24.5731 26.5131 24.3897C26.6298 23.8965 26.7529 23.4096 26.8696 22.9164C26.9539 22.5496 27.0252 22.1765 27.1095 21.8098C27.2132 21.3735 27.3299 20.9435 27.4271 20.5135C27.5308 20.0582 27.6086 19.5903 27.7123 19.135C27.7318 19.0591 27.8485 18.9832 27.9327 18.9516C28.0235 18.92 28.1337 18.9516 28.2374 18.9516C28.5097 18.9706 28.5615 19.0401 28.5745 19.312C28.5875 19.6851 28.594 20.0582 28.6458 20.4186C28.756 21.1521 28.8921 21.8793 29.0218 22.6128C29.145 23.3084 29.2746 23.9977 29.3913 24.6932C29.4237 24.864 29.495 24.9715 29.6765 24.9968C30.046 25.0473 30.4155 25.1043 30.785 25.1485C31.161 25.1928 31.2582 25.1232 31.3749 24.7628C31.3814 24.7312 31.3879 24.7059 31.4008 24.6743C31.6472 24.1557 31.9 23.6436 32.1463 23.125C32.438 22.5053 32.7233 21.8856 33.0085 21.2596C33.1965 20.836 33.3715 20.3997 33.5595 19.976C33.5984 19.8811 33.6373 19.7167 33.7021 19.7104C33.8901 19.6788 34.0975 19.6725 34.2726 19.723C34.3439 19.742 34.3957 19.9507 34.3957 20.0708C34.3633 21.4557 34.3244 22.8405 34.2855 24.2253C34.2726 24.5731 34.2272 24.9209 34.2272 25.2687C34.2272 25.3572 34.305 25.4773 34.3892 25.5279C34.48 25.5848 34.6096 25.5975 34.7263 25.6101C35.2514 25.6734 35.7765 25.7303 36.3016 25.7935C36.5349 25.8188 36.7618 25.8567 36.9952 25.8884C37.1961 25.9137 37.261 25.7998 37.2545 25.6291C37.2156 25.0094 37.1702 24.3834 37.1378 23.7637C37.0989 23.0365 37.073 22.303 37.047 21.5758C37.0211 20.9182 36.9822 20.2542 36.9563 19.5966C36.9239 18.667 36.8979 17.7438 36.8655 16.8143L36.7942 16.8206ZM23.5571 33.0275C23.609 32.3193 23.4858 31.6679 23.2654 31.0293C23.045 30.3906 22.7014 29.8152 22.2541 29.2967C21.5411 28.4683 20.6465 27.9055 19.6028 27.5577C19.1361 27.3997 18.6499 27.2985 18.1637 27.2163C17.8007 27.153 17.4182 27.1277 17.0487 27.1404C16.6533 27.153 16.2644 27.2163 15.8754 27.2795C15.5189 27.3427 15.1624 27.4123 14.8188 27.5261C14.0085 27.798 13.2889 28.2154 12.6407 28.7782C12.3814 29.0058 12.362 29.2271 12.4203 29.499C12.4786 29.7646 12.537 30.0302 12.5888 30.2958C12.6666 30.6752 12.7315 31.0546 12.8028 31.434C12.9194 32.0031 13.0361 32.5722 13.1528 33.1476C13.1917 33.35 13.2306 33.546 13.276 33.7483C13.3862 34.2922 13.4964 34.8296 13.6066 35.3735C13.6909 35.7971 13.7751 36.2145 13.8724 36.6318C13.9113 36.8089 13.8464 36.9227 13.6844 36.9669C13.4834 37.0175 13.2695 37.0302 13.0685 37.0681C12.9843 37.0871 12.913 37.1377 12.8352 37.1693C12.887 37.2515 12.913 37.3716 12.9907 37.4159C13.7492 37.8775 14.5141 38.3328 15.4281 38.4719C15.9143 38.5478 16.4005 38.6616 16.8932 38.6996C17.2821 38.7312 17.684 38.6553 18.0795 38.649C18.7147 38.6363 19.3176 38.4782 19.9075 38.2632C20.653 37.9913 21.3207 37.593 21.9041 37.0555C22.4486 36.5496 22.8829 35.9552 23.1487 35.2786C23.4404 34.5514 23.6349 33.7926 23.5636 33.0275H23.5571ZM21.029 25.9137C20.9188 25.9137 20.8604 25.9832 20.9058 26.1286C21.003 26.4385 21.0938 26.7483 21.191 27.0582C21.2753 27.3048 21.3531 27.5514 21.5929 27.7221C21.9106 27.9435 22.2282 28.1838 22.5005 28.4557C23.22 29.1639 23.7321 29.9986 24.0368 30.9597C24.2507 31.6363 24.3674 32.3193 24.3609 33.0148C24.3609 33.7041 24.2442 34.3807 24.0303 35.0446C23.8229 35.6833 23.5766 36.3093 23.1163 36.7962C22.6301 37.3147 22.507 37.9471 22.3254 38.5731C22.2217 38.9462 22.1569 39.3256 22.0143 39.686C21.9235 39.92 21.93 39.9895 22.2023 40.0781C22.5264 40.1856 22.857 40.2678 23.1811 40.35C24.0887 40.5776 25.0027 40.7863 25.9037 41.0329C26.1241 41.0898 26.2019 41.0139 26.2473 40.8558C26.3575 40.4954 26.4483 40.1286 26.5455 39.7619C26.7076 39.1296 26.8696 38.4909 27.0382 37.8522C27.2197 37.1693 27.4012 36.48 27.6021 35.7971C27.6605 35.5948 27.7901 35.3987 27.9327 35.2407C28.1596 34.994 28.4254 34.7791 28.6653 34.5451C29.6376 33.6156 30.61 32.6797 31.5824 31.7501C32.3667 31.004 33.1641 30.2641 33.9484 29.518C34.0003 29.4674 34.0586 29.3662 34.0392 29.3093C34.0262 29.2587 33.9225 29.2145 33.8447 29.1955C33.6762 29.1449 33.4947 29.1196 33.3261 29.0753C32.6714 28.9046 32.0102 28.7276 31.3555 28.5505C30.798 28.4051 30.2405 28.247 29.6765 28.1142C29.5469 28.0826 29.3265 28.1079 29.2552 28.1901C28.769 28.7592 28.2958 29.3473 27.842 29.948C27.5632 30.3147 27.3104 30.7005 27.0511 31.0862C26.9474 31.238 26.8048 31.2443 26.6622 31.1937C26.5001 31.1368 26.2797 31.1241 26.2408 30.8902C26.1825 30.5361 26.1241 30.1883 26.0723 29.8342C25.9686 29.0817 25.8649 28.3292 25.7676 27.583C25.7287 27.2669 25.5991 27.0455 25.2425 26.995C25.0351 26.9633 24.8406 26.9001 24.6332 26.8432C24.2507 26.742 23.8747 26.6408 23.4923 26.5397C22.9478 26.4006 22.3968 26.2678 21.8522 26.1286C21.5864 26.0591 21.3142 25.9832 21.0095 25.901L21.029 25.9137ZM32.5093 35.2596C33.4752 35.2596 34.4476 35.247 35.4135 35.2596C35.7376 35.2596 36.0358 34.9877 36.0293 34.6463C36.0163 32.041 36.0228 29.4358 36.0293 26.8242C36.0293 26.5776 35.9061 26.4954 35.6987 26.4701C35.0569 26.4006 34.4152 26.331 33.7734 26.2741C33.4234 26.2425 33.3715 26.1982 33.3845 25.8504C33.4169 25.0094 33.4493 24.1621 33.4882 23.3211C33.5012 23.0239 33.54 22.733 33.5595 22.4358C33.5595 22.3726 33.5012 22.3093 33.4687 22.2461C33.4169 22.284 33.3391 22.3093 33.3132 22.3599C33.2289 22.5243 33.1641 22.7077 33.0863 22.8784C32.827 23.4349 32.5547 23.9913 32.2954 24.5478C32.0945 24.9778 31.9 25.4141 31.6861 25.8314C31.6472 25.9073 31.5175 25.9706 31.4268 25.9769C31.2842 25.9832 31.1351 25.9326 30.9925 25.9137C30.3442 25.8441 29.696 25.7809 29.0477 25.705C28.8468 25.6797 28.7106 25.6038 28.6847 25.3698C28.6588 25.1106 28.581 24.8513 28.5291 24.5921C28.3736 23.7384 28.2245 22.8784 28.0624 22.0248C28.0494 21.9426 27.9976 21.8667 27.9716 21.7908C27.9133 21.8604 27.8485 21.9299 27.8031 22.0058C27.7772 22.0564 27.7837 22.1259 27.7707 22.1828C27.7253 22.4295 27.6929 22.6761 27.6346 22.9164C27.5244 23.3969 27.4012 23.8712 27.291 24.3518C27.2262 24.63 27.1678 24.9146 27.0965 25.1928C27.0511 25.3825 26.9345 25.49 26.7076 25.452C26.4159 25.4015 26.1241 25.3762 25.826 25.3445C25.5342 25.3129 25.2361 25.2813 24.9443 25.2497C24.2507 25.1612 23.5571 25.0663 22.8635 24.9904C22.5005 24.9525 22.4162 24.845 22.5394 24.4972C22.5912 24.3391 22.669 24.1874 22.7144 24.0293C22.7338 23.966 22.7144 23.8712 22.669 23.8269C22.6366 23.7953 22.5394 23.8143 22.4745 23.8269C22.0337 23.9091 21.5994 24.0419 21.1586 24.0672C20.6659 24.0925 20.1668 24.0356 19.6741 23.985C19.0324 23.9281 18.449 23.6878 17.8915 23.3906C17.6775 23.2768 17.4831 23.0681 17.1914 23.163C16.971 23.2325 16.757 23.3147 16.5302 23.3716C15.9338 23.5171 15.3309 23.6625 14.728 23.789C14.4558 23.8459 14.391 23.9281 14.4558 24.1874C14.5271 24.4719 14.5789 24.7628 14.6373 25.0473C14.7151 25.4204 14.7799 25.7935 14.8707 26.1603C14.9225 26.3816 14.8901 26.4764 14.6632 26.527C14.4752 26.565 14.2872 26.6029 14.0928 26.6282C13.4445 26.723 12.8028 26.8116 12.1545 26.9064C11.973 26.9317 11.8952 27.0519 11.9406 27.2289C11.9989 27.4502 12.0508 27.6652 12.1027 27.8866C12.1416 28.0573 12.2388 28.1015 12.3814 27.9941C12.537 27.8802 12.6796 27.7538 12.8352 27.6463C13.3408 27.3048 13.9113 27.0835 14.4817 26.8495C15.2466 26.5397 16.044 26.4511 16.8348 26.3816C17.3405 26.3373 17.8591 26.4195 18.3712 26.4638C18.6045 26.4828 18.8444 26.546 19.0713 26.6092C19.4084 26.6978 19.7325 26.8116 20.0696 26.9064C20.1344 26.9254 20.2511 26.9254 20.2705 26.8938C20.3029 26.8369 20.29 26.7483 20.2705 26.6725C20.2446 26.5713 20.1927 26.4764 20.1603 26.3753C20.0112 25.9516 19.8621 25.5279 19.7195 25.0979C19.7001 25.0284 19.7195 24.9272 19.7584 24.8703C19.7843 24.8324 19.8945 24.8324 19.9529 24.8513C20.2057 24.9146 20.4585 24.9968 20.7113 25.06C21.1392 25.1675 21.567 25.256 21.9948 25.3635C22.6366 25.5279 23.2784 25.7113 23.9201 25.8757C24.6656 26.0717 25.4176 26.2425 26.163 26.4511C26.2732 26.4828 26.3834 26.6345 26.4223 26.7547C26.4872 26.9633 26.4936 27.1847 26.5261 27.406C26.6233 28.1332 26.7205 28.8604 26.8243 29.5875C26.8307 29.6445 26.8761 29.7393 26.915 29.7456C26.9733 29.752 27.0641 29.714 27.103 29.6697C27.1873 29.5749 27.2391 29.4548 27.3234 29.3536C27.8161 28.7339 28.3087 28.1205 28.8014 27.5071C29.0218 27.2289 29.1644 27.191 29.5015 27.2795C30.1886 27.4629 30.8758 27.6399 31.5629 27.817C32.0167 27.9371 32.4769 28.051 32.9307 28.1711C33.3326 28.2723 33.741 28.3671 34.1429 28.4683C34.5513 28.5758 34.9662 28.677 35.3746 28.7971C35.6533 28.8793 35.6598 28.9615 35.4459 29.1576C34.48 30.0744 33.5076 30.9913 32.5418 31.9082C31.6601 32.7429 30.785 33.5776 29.9034 34.4123C29.683 34.621 29.4496 34.8233 29.2357 35.0383C29.1903 35.0826 29.1968 35.1711 29.1839 35.2343C29.2487 35.247 29.307 35.2723 29.3718 35.2723C29.4626 35.2723 29.5598 35.247 29.6506 35.247C30.6035 35.247 31.5564 35.247 32.5093 35.247V35.2596ZM22.5264 10.8007C22.5264 11.3129 22.5264 11.8251 22.5264 12.331C22.5264 12.5397 22.4421 12.6472 22.2282 12.6345C21.9819 12.6219 21.7355 12.5839 21.4827 12.5839C21.392 12.5839 21.3012 12.6472 21.2105 12.6788C21.2623 12.7357 21.3012 12.8116 21.366 12.8432C21.7031 12.9823 22.0532 13.1025 22.3968 13.2416C23.6025 13.7411 24.7564 14.3608 26.0593 14.6137C26.4223 14.6833 26.7983 14.7339 27.1678 14.7339C27.466 14.7339 27.7642 14.6454 28.0624 14.5885C28.769 14.462 29.3848 14.1458 29.9229 13.6905C30.7267 13.0139 31.2323 12.1539 31.5435 11.1738C31.7444 10.5541 31.8805 9.93443 31.8157 9.28944C31.7833 8.97327 31.7768 8.64446 31.6731 8.34726C31.4722 7.77183 31.1804 7.23434 30.7591 6.77273C29.9747 5.91275 29.0088 5.31835 27.9327 4.86307C26.8891 4.42675 25.8519 3.97779 24.8147 3.53515C24.5295 3.41501 24.4322 3.42133 24.322 3.64897C24.2118 3.87029 24.1146 4.10426 24.0174 4.3319C23.7192 5.0338 23.421 5.7357 23.1163 6.43127C22.7792 7.1964 22.4421 7.96153 22.0921 8.72666C22.0078 8.91636 22.105 8.99224 22.2671 8.99857C22.4875 8.99857 22.5199 9.11239 22.5199 9.28944C22.5134 9.80164 22.5199 10.3075 22.5199 10.8197L22.5264 10.8007ZM8.07059 17.2632C8.03817 18.041 8.16782 18.7366 8.44008 19.4195C8.76421 20.2479 9.25039 20.9624 9.89863 21.5821C10.0412 21.7212 10.1968 21.7212 10.3718 21.6833C10.6376 21.6264 10.9034 21.5695 11.1627 21.5189C11.5841 21.4367 12.0119 21.3482 12.4397 21.266C12.8157 21.1964 13.1852 21.1205 13.5612 21.0573C13.7557 21.0193 13.8724 21.0952 13.9113 21.2976C14.002 21.7908 14.0992 22.2777 14.1835 22.7709C14.2224 23.0049 14.3132 23.0997 14.553 23.0744C14.6567 23.0681 14.7605 23.0175 14.8707 23.0049C15.7199 22.8974 16.5237 22.6192 17.321 22.3346C17.6516 22.2208 17.71 22.069 17.6192 21.7339C17.5609 21.5252 17.509 21.3102 17.4766 21.0889C17.3794 20.4186 17.2886 19.7547 17.1978 19.0844C17.1654 18.8694 17.0682 18.8251 16.9061 18.9706C16.569 19.2804 16.1801 19.5017 15.7523 19.6535C15.0975 19.8875 14.4234 19.9633 13.7686 19.742C12.8805 19.4448 12.2129 18.8884 11.9017 17.9778C11.597 17.0988 11.7721 16.3084 12.2906 15.5749C12.6796 15.0184 13.2371 14.6707 13.8983 14.4999C14.3261 14.3861 14.7669 14.3355 15.2077 14.462C15.5059 14.5505 15.8041 14.6517 16.1088 14.7339C16.1931 14.7529 16.2903 14.7339 16.3746 14.7212C16.3746 14.6517 16.3746 14.5821 16.3551 14.5126C16.2514 14.0067 16.1347 13.5071 16.0505 13.0013C15.9986 12.723 15.9338 12.6345 15.6485 12.6345C15.2985 12.6345 14.9484 12.6345 14.5919 12.6345C14.378 12.6345 14.2872 12.5207 14.2872 12.3436C14.2872 12.116 14.2937 11.8884 14.3132 11.6607C14.3261 11.4773 14.2419 11.3635 14.0539 11.3698C13.8853 11.3762 13.7168 11.4204 13.5482 11.4457C13.1269 11.5153 12.7055 11.5595 12.2906 11.6544C12.0638 11.705 11.8304 11.7935 11.7526 12.0654C11.7396 12.116 11.6683 12.1729 11.61 12.1919C11.2405 12.3436 10.8645 12.4828 10.495 12.6345C10.333 12.7041 10.145 12.7547 10.0283 12.8685C9.52913 13.3364 9.07536 13.8613 8.75772 14.462C8.29099 15.3473 7.98631 16.2831 8.07059 17.2506V17.2632ZM18.3971 11.8504C19.4148 11.8504 20.4261 11.8504 21.4438 11.8504C21.7161 11.8504 21.7615 11.8062 21.7615 11.5469C21.7615 11.06 21.7615 10.5731 21.7615 10.0862C21.7615 9.77635 21.7096 9.72576 21.3985 9.72576C20.4715 9.72576 19.538 9.72576 18.611 9.72576C18.3258 9.72576 18.2934 9.68782 18.2934 9.40326C18.2934 9.03018 18.2934 8.6571 18.2934 8.28402C18.2934 7.94256 18.3323 7.90462 18.6823 7.90462C19.4732 7.90462 20.2576 7.90462 21.0484 7.90462C21.191 7.90462 21.3142 7.89197 21.3142 7.70859C21.3142 7.18375 21.3142 6.65891 21.3142 6.13407C21.3142 5.98863 21.2364 5.89378 21.0873 5.89378C20.2705 5.89378 19.4472 5.9001 18.6305 5.9254C18.3841 5.93172 18.2869 5.87481 18.2869 5.63452C18.2869 5.25512 18.2869 4.87571 18.2869 4.48999C18.2869 4.15485 18.3063 4.13588 18.6369 4.13588C19.5186 4.13588 20.4002 4.13588 21.2818 4.13588C21.5735 4.13588 21.6383 4.01573 21.6124 3.7375C21.58 3.31383 21.567 2.88384 21.6059 2.46018C21.6383 2.06813 21.6253 2.01754 21.2299 2.01754C19.9723 2.01754 18.7147 2.01754 17.4571 2.01754C16.757 2.01754 16.0505 2.01754 15.3504 2.01754C15.0651 2.01754 14.9873 2.13136 15.0586 2.39062C15.0716 2.43488 15.0846 2.47915 15.0846 2.52341C15.0846 3.33281 15.1105 4.1422 15.0716 4.94527C15.0586 5.19821 15.0975 5.40056 15.2142 5.6029C15.2596 5.68511 15.3309 5.76099 15.3828 5.84319C15.7458 6.45024 16.1023 7.06361 16.4783 7.66433C16.8543 8.2777 17.2497 8.88475 17.6386 9.49812C17.8007 9.75738 17.7553 9.86487 17.4701 9.97237C16.77 10.2316 16.0764 10.4972 15.3828 10.7691C15.0327 10.9082 15.0133 10.9651 15.0846 11.3193C15.0911 11.3635 15.0975 11.4078 15.0846 11.452C15.0327 11.7872 15.0651 11.8314 15.4217 11.8314C16.4135 11.8314 17.4053 11.8314 18.3971 11.8314V11.8504ZM17.5349 17.0419C17.5349 17.0419 17.5933 17.0546 17.6257 17.0609C17.6581 17.1747 17.7035 17.2822 17.7229 17.396C17.7424 17.5225 17.7424 17.6553 17.7618 17.7818C17.8526 18.3572 17.9433 18.9326 18.0341 19.5081C18.1054 19.9507 18.1702 20.3933 18.2415 20.836C18.3193 21.3292 18.4101 21.8224 18.4814 22.3156C18.4943 22.3915 18.449 22.4864 18.4036 22.5559C18.2869 22.733 18.3128 22.8215 18.5203 22.8911C18.5786 22.91 18.6369 22.9227 18.6953 22.948C19.35 23.1946 20.0242 23.3716 20.7308 23.3464C21.1651 23.3274 21.5929 23.2515 22.0208 23.1819C22.6625 23.0808 23.22 22.7899 23.7256 22.4042C24.51 21.8034 24.9768 20.9877 25.1259 20.0392C25.262 19.1729 25.1647 18.3066 24.7434 17.5162C24.1276 16.3716 23.1033 15.7077 21.8393 15.4231C21.029 15.2398 20.1992 15.2714 19.3889 15.4927C18.6369 15.695 17.9822 16.0618 17.4247 16.5993C17.0099 17.004 16.7376 17.5035 16.4977 18.0157C16.4718 18.0726 16.4848 18.1485 16.4783 18.2181C16.5561 18.1991 16.6598 18.2118 16.6987 18.1612C16.8348 18.0094 16.958 17.845 17.0812 17.6806C17.2367 17.4719 17.3858 17.2569 17.5349 17.0483V17.0419ZM31.7898 12.6598C31.7898 12.9886 31.9194 13.1341 32.1139 13.0961C32.451 13.0392 32.7816 12.9823 33.1187 12.9317C33.6632 12.8432 34.2077 12.7547 34.7458 12.6661C34.9662 12.6282 35.0116 12.5333 34.9727 12.331C34.8495 11.6354 34.7263 10.9462 34.6096 10.2506C34.5319 9.79532 34.467 9.34003 34.3957 8.87842C34.3115 8.34726 34.2207 7.81609 34.1364 7.28493C34.0651 6.81067 34.0003 6.34274 33.929 5.86849C33.7864 4.99586 33.6308 4.12323 33.4947 3.2506C33.4558 2.99134 33.3974 2.91546 33.1381 2.94708C32.827 2.97869 32.5223 3.02928 32.2176 3.07355C31.6861 3.15575 31.161 3.24428 30.6294 3.32016C30.3248 3.36442 30.2405 3.47824 30.3118 3.7628C30.3831 4.04103 30.4285 4.32558 30.4803 4.60381C30.5257 4.85042 30.5322 5.10336 30.597 5.34364C30.6359 5.48276 30.7202 5.6282 30.8239 5.72937C31.5629 6.43759 32.1593 7.23434 32.4316 8.22079C32.6001 8.84048 32.652 9.47282 32.5742 10.1305C32.4769 10.9525 32.1982 11.6987 31.8741 12.4448C31.8352 12.5397 31.7963 12.6345 31.7768 12.6661L31.7898 12.6598ZM36.0423 10.3012C36.0423 10.3012 36.0423 10.3012 36.0358 10.3012C36.0358 9.56135 36.0358 8.82151 36.0358 8.08168C36.0358 7.60742 35.783 7.36081 35.2903 7.36081C35.031 7.36081 34.9597 7.41772 34.9921 7.67698C35.0505 8.15123 35.1282 8.61916 35.1995 9.09342C35.3486 10.0419 35.5042 10.9904 35.6533 11.9389C35.6987 12.2361 35.7246 12.5397 35.7894 12.8369C35.8672 13.1594 35.77 13.3301 35.4264 13.3744C35.2514 13.3933 35.0634 13.387 34.8884 13.4123C34.1299 13.5261 33.3715 13.6463 32.6131 13.7664C32.3473 13.8107 32.0815 13.8739 31.8157 13.9055C31.5694 13.9371 31.2842 14.0573 31.1221 13.7285C31.1156 13.7095 30.9989 13.7032 30.973 13.7285C30.785 13.9118 30.5905 14.1015 30.422 14.3039C30.3766 14.3608 30.3766 14.481 30.3896 14.5632C30.4479 14.9995 30.5192 15.4295 30.5841 15.8658C30.6294 16.1819 30.6618 16.4981 30.7007 16.8143C30.7785 17.3771 30.8563 17.9398 30.9406 18.5026C30.9536 18.5912 31.0054 18.6734 31.0313 18.7619C31.1027 18.6923 31.2129 18.6417 31.2453 18.5595C31.362 18.2876 31.4333 18.0031 31.5435 17.7375C31.7898 17.1684 32.0491 16.6119 32.3019 16.0428C32.4575 15.6887 32.5871 15.3156 32.7557 14.9679C32.8011 14.8793 32.9307 14.7845 33.0344 14.7718C33.2159 14.7465 33.4104 14.7718 33.5919 14.7971C34.3179 14.8793 35.044 14.9679 35.7635 15.0564C35.9645 15.0817 36.0228 14.9868 36.0228 14.8034C36.0228 14.0699 36.0228 13.3364 36.0228 12.5966C36.0228 11.8314 36.0228 11.0726 36.0228 10.3075L36.0423 10.3012ZM14.7475 15.1955C14.1381 15.1702 13.814 15.2651 13.3084 15.6192C12.3814 16.2642 12.2777 17.7185 13.1009 18.49C13.6973 19.0464 14.4104 19.2488 15.2142 19.0275C15.3698 18.9832 15.5513 18.9516 15.5902 18.7366C15.6421 18.452 15.6939 18.1738 15.7717 17.8956C15.9532 17.2506 16.2773 16.6752 16.77 16.2009C16.9126 16.0618 16.8932 15.948 16.7117 15.8468C16.6144 15.7899 16.5107 15.733 16.407 15.6824C15.8689 15.4105 15.3244 15.1449 14.7475 15.1955ZM18.1572 12.6345C17.7877 12.6345 17.4247 12.6345 17.0552 12.6345C16.8543 12.6345 16.7635 12.7041 16.7959 12.9064C16.8348 13.1214 16.8802 13.3364 16.9256 13.5514C17.0423 14.1268 17.159 14.7086 17.2821 15.284C17.3016 15.3726 17.3469 15.48 17.4118 15.5243C17.4571 15.5496 17.5803 15.4927 17.6451 15.4421C18.4684 14.8983 19.3759 14.6137 20.3613 14.5758C20.9836 14.5505 21.5994 14.5695 22.2088 14.7402C22.8311 14.9173 23.421 15.1386 23.9396 15.5243C24.2313 15.7393 24.4971 15.9922 24.7693 16.2389C24.873 16.3337 24.9768 16.3527 25.0286 16.2262C25.1194 15.9733 25.1842 15.7077 25.249 15.4421C25.2814 15.3156 25.2361 15.2271 25.0934 15.1828C24.8406 15.1006 24.5878 14.9995 24.335 14.8983C23.5117 14.5505 22.6949 14.1964 21.8782 13.8549C21.1651 13.5577 20.4391 13.2795 19.726 12.9823C19.6482 12.9507 19.5639 12.8748 19.5315 12.8053C19.4602 12.6598 19.3565 12.6345 19.2139 12.6345C18.8638 12.6345 18.5138 12.6345 18.1572 12.6345ZM11.6489 7.92359C11.6489 7.92359 11.597 7.94256 11.5646 7.95521C11.5646 8.03741 11.5452 8.11329 11.5516 8.1955C11.5776 8.51167 11.61 8.82784 11.6359 9.15033C11.6748 9.69414 11.7007 10.2443 11.7396 10.7881C11.7526 10.9715 11.8693 11.0347 12.0443 10.9841C12.2712 10.9209 12.5046 10.8576 12.7379 10.8071C12.9907 10.7565 13.075 10.63 12.9648 10.4087C12.8092 10.0925 12.6342 9.78267 12.4722 9.4665C12.2842 9.09974 12.1156 8.72034 11.9276 8.35358C11.8498 8.20182 11.7461 8.06903 11.6554 7.92359H11.6489ZM20.1538 8.63813C19.8751 8.63813 19.5899 8.62549 19.3111 8.64446C19.2268 8.64446 19.0972 8.73931 19.0842 8.80887C19.0583 8.94166 19.175 8.99857 19.3111 8.99857C19.8556 8.99857 20.4002 8.99857 20.9512 8.99857C21.0873 8.99857 21.2234 8.94798 21.204 8.80254C21.191 8.73299 21.0419 8.65078 20.9512 8.63813C20.6854 8.61916 20.4196 8.63181 20.1538 8.63181V8.63813Z" fill="black"/>
<path d="M14.5402 33.1356C14.5337 32.2503 14.7735 31.5548 15.3829 31.0173C16.1478 30.347 17.0229 30.1447 18.0277 30.4482C18.7991 30.6821 19.3372 31.1564 19.6353 31.8583C19.9141 32.5033 19.9854 33.1799 19.7455 33.8691C19.5835 34.3371 19.3566 34.7481 18.9741 35.0706C18.287 35.646 17.4961 35.8041 16.6145 35.6334C15.9728 35.5069 15.4477 35.2034 15.0587 34.6975C14.6892 34.2106 14.5013 33.6605 14.5337 33.1356H14.5402ZM19.1232 33.104C19.1232 32.7119 18.9741 32.2061 18.7991 31.9152C18.3324 31.1437 17.2109 30.8402 16.3293 31.2765C15.8107 31.5358 15.506 31.9658 15.3699 32.5349C15.2467 33.0661 15.3116 33.553 15.5514 34.0462C15.9339 34.8366 17.1655 35.1465 17.9499 34.8113C18.7408 34.4762 19.039 33.8438 19.1167 33.104H19.1232Z" fill="black"/>
<path d="M26.2408 12.0073C25.7417 11.9503 25.249 11.8239 24.7823 11.6152C24.711 11.5836 24.6332 11.5709 24.5684 11.533C24.4322 11.4634 24.3545 11.3749 24.4387 11.2042C24.6202 10.8501 24.7888 10.4896 24.9573 10.1292C25.1518 9.69922 25.3333 9.25658 25.5213 8.82026C25.7482 8.29542 25.9751 7.77058 26.189 7.24574C26.2733 7.03074 26.4029 6.96118 26.6168 7.06236C27.1613 7.30897 27.7253 7.54294 28.1207 7.99822C28.568 8.51042 28.7949 9.07952 28.6393 9.7751C28.5032 10.3885 28.2828 10.9449 27.8096 11.4002C27.3753 11.8176 26.8437 11.9693 26.2473 12.0073H26.2408ZM27.8809 9.43363C27.9522 8.75071 27.4336 8.34601 26.9345 8.05513C26.7789 7.96028 26.6881 8.03616 26.6363 8.1816C26.6168 8.23219 26.6103 8.28277 26.5844 8.33336C26.2019 9.16805 25.8195 10.0027 25.45 10.8437C25.4241 10.907 25.4629 11.0587 25.5083 11.0777C25.9362 11.2548 26.4029 11.3117 26.8243 11.1346C27.5697 10.8248 27.8226 10.1798 27.8809 9.44628V9.43363Z" fill="black"/>
<path d="M18.6889 19.3557C18.7991 18.1416 19.5445 17.3448 20.7373 17.3512C21.943 17.3512 22.7469 18.1542 22.7533 19.4126C22.7533 20.5571 21.9819 21.4171 20.7049 21.4045C19.5056 21.3981 18.7342 20.5382 18.6889 19.3557ZM21.9625 19.3873C22.0338 18.6538 21.3207 18.072 20.7049 18.1163C19.9789 18.1669 19.5121 18.6475 19.4927 19.4126C19.4732 20.1461 20.0631 20.6393 20.7438 20.6393C21.4244 20.6393 22.0273 20.0955 21.9625 19.3873Z" fill="black"/>
</g>
<defs>
<clipPath id="clip0_260_698">
<rect width="38" height="42" fill="white"/>
</clipPath>
</defs>
</svg>
