<svg width="746" height="159" viewBox="0 0 746 159" fill="none" xmlns="http://www.w3.org/2000/svg">
<g clip-path="url(#clip0_2_2)">
<path fill-rule="evenodd" clip-rule="evenodd" d="M744.355 131.394C744.717 131.831 745.007 132.377 745.261 132.886L745.297 132.813C745.32 132.86 745.343 132.909 745.367 132.962C745.419 133.074 745.477 133.199 745.551 133.323C745.805 134.051 745.949 134.742 745.949 135.47C745.949 135.907 745.913 136.307 745.805 136.707C745.696 137.107 745.587 137.508 745.406 137.872C744.645 139.473 743.34 140.565 741.673 141.038C741.02 141.256 740.368 141.329 739.679 141.329H702.927C701.949 141.329 700.861 141.11 699.883 140.746C699.719 140.665 699.545 140.617 699.378 140.572C699.248 140.537 699.124 140.503 699.013 140.455C697.78 139.873 696.657 139.036 695.787 138.054L689.807 132.049V133.286C689.807 134.742 689.408 136.016 688.792 137.18C688.429 137.872 687.994 138.49 687.451 139.036C686.001 140.565 683.935 141.474 681.688 141.474H652.946C651.931 141.474 651.025 141.292 650.155 140.965C649.648 140.783 649.14 140.528 648.705 140.273C647.654 139.582 646.821 138.745 646.132 137.69L645.661 137.217C644.827 137.799 643.957 138.381 643.015 138.854C642.326 139.291 641.601 139.728 640.804 140.128C639.68 140.674 638.521 141.22 637.288 141.729C632.359 143.767 626.451 145.186 619.456 145.186C614.345 145.186 609.489 144.349 604.922 142.784C603.943 142.493 602.928 142.129 601.986 141.765C600.609 141.22 599.304 140.601 598.035 139.873C594.193 137.872 590.678 135.361 587.561 132.34V133.359C587.561 137.872 583.9 141.547 579.406 141.547H517.754C516.558 141.547 515.253 141.256 514.021 140.856C513.92 140.815 513.823 140.778 513.727 140.741C513.475 140.644 513.232 140.551 512.969 140.419C512.208 140.055 511.411 139.618 510.758 139.145C510.034 138.672 498.653 127.209 498.653 127.209V133.359C498.653 134.96 498.145 136.489 497.312 137.799C495.898 140.055 493.361 141.547 490.498 141.547H468.461C466.975 141.547 465.562 141.11 464.402 140.492C463.351 139.873 462.444 139.036 461.756 138.054L460.451 136.744C458.131 138.272 455.522 139.473 452.767 140.237C449.795 141.147 446.642 141.583 443.271 141.583H359.582C357.263 141.583 354.653 140.637 352.587 139.182C351.898 138.709 340.481 127.246 340.481 127.246V133.396C340.481 135.652 339.575 137.653 338.089 139.145C337.957 139.312 337.793 139.448 337.6 139.609L337.546 139.655C336.132 140.819 334.32 141.583 332.326 141.583H310.29C308.296 141.583 306.52 140.819 305.107 139.655C304.926 139.473 290.935 125.535 290.935 125.535C290.825 125.567 290.723 125.592 290.624 125.615C290.493 125.646 290.37 125.676 290.247 125.717C287.782 126.445 285.172 126.845 282.454 126.845V147.952C282.454 148.57 282.309 149.189 282.091 149.735C282.067 149.796 282.044 149.857 282.02 149.916C281.907 150.209 281.801 150.482 281.62 150.754C281.512 150.863 281.367 150.972 281.258 151.118C280.787 151.773 280.207 152.319 279.446 152.682C278.25 153.228 277.017 153.738 275.676 154.247C275.404 154.325 275.131 154.424 274.848 154.528C274.603 154.617 274.35 154.709 274.081 154.793C272.16 155.448 270.022 156.03 267.739 156.613C263.136 157.668 257.808 158.25 251.863 158.25C249.399 158.25 247.043 158.141 244.723 157.959C240.736 157.631 236.931 157.013 233.343 156.139C232.942 156.027 232.542 155.921 232.144 155.817C231.642 155.685 231.146 155.554 230.66 155.412C226.855 154.32 223.267 152.937 219.896 151.19C218.41 150.499 216.996 149.698 215.583 148.861C212.212 146.824 209.131 144.385 206.304 141.62H137.294C135.011 141.62 132.981 140.674 131.532 139.182L127.255 134.888C125.261 137.653 122.978 140.091 120.296 142.057C120.175 142.105 120.054 142.186 119.933 142.267C119.873 142.307 119.812 142.348 119.752 142.384C117.867 143.767 115.801 144.895 113.59 145.841C111.778 146.642 109.821 147.333 107.791 147.879C104.747 148.607 101.521 148.971 98.1141 148.971H37.2232C36.6795 148.971 36.1721 148.934 35.7009 148.825C34.2149 148.607 32.8376 147.915 31.714 146.969C31.3153 146.642 30.9166 146.278 30.5904 145.841L3.26201 118.403C3.29061 118.417 3.31356 118.437 3.33533 118.456C3.36874 118.485 3.39934 118.512 3.44323 118.512C1.84847 117.239 0.652402 115.492 0.253712 113.418L0 111.598V26.5181C0 21.6054 3.95066 17.6753 8.80743 17.6753H64.9865C75.7511 17.6753 84.8123 22.0785 90.5389 30.1207L100.651 40.2371V34.7422C100.651 30.2299 104.312 26.5545 108.806 26.5545H165.493C166.109 26.5545 166.725 26.6272 167.305 26.7364C165.746 20.2954 165.384 8.8689 179.084 2.02757C190.175 -3.50372 200.215 3.66512 204.057 7.12217C210.074 5.37545 216.525 4.53848 223.267 4.53848C230.008 4.53848 236.351 5.30267 242.259 6.68549C246.427 3.11927 256.104 -3.28538 266.688 2.02757C280.932 9.12363 280.062 21.0596 278.322 27.3914C279.373 26.882 280.533 26.5181 281.838 26.5181H331.674C343.562 26.5181 351.609 31.7946 356.502 38.5632V34.7422C356.502 30.2299 360.162 26.5545 364.657 26.5545H410.941C419.567 26.5545 426.888 29.866 431.818 35.9795V34.6331C431.818 30.1207 435.478 26.4817 439.973 26.4817H489.773C501.19 26.4817 509.055 31.3216 513.984 37.7262V34.7058C513.984 30.1935 517.681 26.5181 522.175 26.5181H550.954C553.165 26.5181 555.194 27.3914 556.68 28.9198L562.008 34.2692C569.946 27.8281 580.167 23.898 590.931 23.898C601.696 23.898 610.467 28.0101 616.665 32.2313C617.68 28.9198 620.761 26.4453 624.385 26.4453H653.163C655.427 26.4453 658.083 28.2889 658.796 28.784C658.951 28.8913 659.014 28.9353 658.962 28.8834L663.892 33.8325C665.885 31.5035 667.335 29.7568 667.335 29.7568C669.002 27.8281 671.866 26.4453 674.439 26.4453H711.227C712.532 26.4453 713.656 26.7728 714.634 27.355C715.105 27.6462 715.54 27.9737 715.939 28.4104C716.045 28.559 725.597 38.1302 733.611 46.1604C739.328 51.8877 744.261 56.8312 744.427 57.013C744.79 57.4496 745.116 57.9227 745.37 58.4685C745.551 58.8688 745.696 59.2691 745.768 59.7058C745.913 60.0697 745.913 60.5064 745.913 60.9067C745.913 61.8892 745.696 62.8354 745.188 63.7451C745.036 64.0508 731.031 80.6895 722.568 90.7452C718.94 95.055 716.33 98.1555 716.265 98.2429C716.773 98.8979 744.355 131.394 744.355 131.394ZM223.303 9.66933C239.975 9.66933 253.458 14.1817 263.752 23.1336L263.716 23.0609C274.045 32.0128 279.228 44.8221 279.228 61.4524C279.228 69.2762 276.909 76.5179 272.269 83.0681C267.63 89.6547 261.505 92.9662 253.857 92.9662C248.167 92.9662 243.926 92.0928 241.171 90.3097C238.381 88.5994 236.568 85.5426 235.735 81.2486C234.394 85.397 232.4 88.4538 229.682 90.3097C227.036 92.202 222.904 93.1117 217.467 93.1117C211.451 93.1117 206.413 91.1831 202.245 87.2529C198.077 83.2864 196.047 76.7362 196.047 67.5295C196.047 59.8148 198.222 53.4102 202.643 48.3884C206.993 43.3665 213.227 40.8556 221.418 40.8556C224.535 40.8556 227.217 41.4379 229.392 42.5659C231.603 43.694 233.234 45.1496 234.249 46.8964V41.2195H247.478C247.333 56.9764 247.261 67.6751 247.261 73.2064C247.261 76.5179 247.695 78.7741 248.638 80.0113C249.58 81.2122 251.102 81.7944 253.168 81.7944C257.953 81.7944 261.323 79.5383 263.208 74.9531C265.057 70.4043 265.999 66.2923 265.999 62.6169C265.999 49.3709 262.085 39.0361 254.219 31.6853C246.391 24.2981 235.988 20.5863 223.122 20.5863C211.415 20.5863 201.266 24.9532 192.64 33.7595C184.05 42.4932 179.701 53.5921 179.701 67.1292C179.701 81.758 183.76 93.039 191.915 101.081C200.034 109.087 210.545 113.053 223.375 113.053C227.326 113.053 231.784 112.69 236.677 111.889C241.606 111.052 245.63 109.888 248.783 108.359C248.783 108.359 253.277 105.63 255.198 110.943C257.083 116.074 248.783 119.313 248.783 119.313C245.883 120.695 242.331 121.896 238.091 122.879C233.886 123.898 228.993 124.371 223.412 124.371C205.688 124.371 191.625 119.24 181.114 108.905C170.603 98.4975 165.348 83.9051 165.348 67.2748C165.348 50.6445 170.857 36.8891 181.875 26.0085C192.857 15.1642 206.63 9.66933 223.303 9.66933ZM230.443 78.301C232.98 75.5353 234.249 72.0419 234.249 67.857V62.8352C234.249 59.1962 233.234 56.285 231.168 54.1016C229.102 51.9546 225.912 50.8629 221.491 50.8629C217.757 50.8629 214.858 52.2821 212.792 55.0113C210.726 57.7406 209.711 62.0346 209.711 67.9662C209.711 71.3141 210.509 74.5528 212.031 77.7188C213.589 80.9211 216.634 82.4495 220.657 82.4495C224.68 82.4495 227.906 81.103 230.443 78.301ZM65.0228 22.7333C86.9145 22.7333 95.2145 43.3664 89.9228 59.0141C109.459 75.2805 102.753 115.128 69.7346 115.128H8.80746C7.06772 115.128 5.69043 113.854 5.32798 112.18C5.31453 112.086 5.2961 112.001 5.27822 111.919C5.24793 111.78 5.21925 111.649 5.21925 111.489V26.4086C5.21925 24.4072 6.81401 22.7333 8.80746 22.7333H65.0228ZM59.9486 47.8788C59.9486 43.6575 56.5053 40.1641 52.2647 40.1641C48.0603 40.1641 44.6533 43.6212 44.6533 47.8788C44.6533 52.1364 48.0241 55.5935 52.2647 55.5935C56.5053 55.5935 59.9486 52.1 59.9486 47.8788ZM43.276 87.8351C43.276 92.7841 47.2992 96.8598 52.2647 96.8598C57.2302 96.8598 61.2896 92.8205 61.2896 87.8351C61.2896 82.8496 57.2302 78.8467 52.2647 78.8467C47.2992 78.8467 43.276 82.886 43.276 87.8351ZM680.999 69.6401L711.916 106.139L711.952 106.103C712.641 106.904 712.314 107.595 711.263 107.595H674.475C673.424 107.595 672.01 106.904 671.286 106.103L656.172 88.2354V104.72C656.172 106.321 654.867 107.668 653.236 107.668H624.458C622.863 107.668 621.522 106.321 621.522 104.72V97.7332C618.151 101.7 607.423 111.343 591.004 111.343C574.585 111.343 560.522 101.7 553.962 87.7624V104.72C553.962 106.321 552.657 107.668 551.026 107.668H489.338C487.743 107.668 485.496 106.685 484.409 105.448L467.084 85.6881C465.96 84.4508 465.09 84.7784 465.09 86.4523V104.72C465.09 106.321 463.749 107.668 462.118 107.668H440.081C438.45 107.668 437.109 106.321 437.109 104.72V95.4043C433.123 102.5 425.729 107.668 414.928 107.668H331.203C329.572 107.668 327.361 106.685 326.237 105.448L308.912 85.6881C307.825 84.4508 306.919 84.7784 306.919 86.4523V104.72C306.919 106.321 305.614 107.668 303.983 107.668H281.91C280.279 107.668 278.938 106.321 278.938 104.72V82.3766C282.599 75.9356 284.484 68.9123 284.484 61.4887C284.484 51.2631 282.599 42.3475 278.938 34.7056V34.5601C278.938 32.9953 280.279 31.6125 281.91 31.6125H331.746C361.213 31.6125 365.273 70.1132 343.888 80.7391L361.757 100.972V34.5965C361.757 32.9589 363.062 31.6125 364.729 31.6125H411.013C429.063 31.6125 435.877 48.5703 431.528 61.4523C433.811 63.3446 435.623 65.6372 437.073 68.1481V34.5237C437.073 32.9589 438.414 31.5761 440.045 31.5761H489.845C519.312 31.5761 523.371 70.0768 502.023 80.7027L519.24 100.317V34.5965C519.24 32.9589 520.544 31.6125 522.212 31.6125H550.99C552.585 31.6125 553.926 32.9589 553.926 34.5965V52.7187C560.486 38.7449 575.237 29.0652 590.968 29.0652C606.698 29.0652 617.825 39.1452 621.486 42.9662V34.5601C621.486 32.9953 622.79 31.6125 624.421 31.6125H653.2C654.794 31.6125 656.135 32.9953 656.135 34.5601V50.9356L671.249 33.1045C671.938 32.3403 673.388 31.6489 674.439 31.6489H711.227C712.314 31.6489 712.604 32.3039 711.916 33.1045L680.999 69.6401ZM317.611 57.5586C317.611 61.6343 320.909 64.9822 325.005 64.9822C329.101 64.9822 332.435 61.6707 332.435 57.5586C332.435 53.4465 329.101 50.135 325.005 50.135C320.909 50.135 317.611 53.4829 317.611 57.5586ZM406.736 52.3184C406.736 48.825 403.909 45.9866 400.466 45.9866C396.987 45.9866 394.16 48.825 394.16 52.3184C394.16 55.8119 397.059 58.6503 400.466 58.6503C403.873 58.6503 406.736 55.8119 406.736 52.3184ZM393.072 85.2514C393.072 89.3635 396.371 92.7114 400.466 92.7114C404.562 92.7114 407.896 89.3635 407.896 85.2514C407.896 81.1394 404.562 77.8279 400.466 77.8279C396.371 77.8279 393.072 81.1394 393.072 85.2514ZM475.71 57.5586C475.71 61.6343 479.044 64.9822 483.104 64.9822C487.199 64.9822 490.534 61.6707 490.534 57.5586C490.534 53.4465 487.163 50.135 483.104 50.135C479.044 50.135 475.71 53.4829 475.71 57.5586ZM606.372 78.2645C607.423 77.0637 609.126 77.0273 610.214 78.1918L621.413 90.346V50.0986L610.214 62.2529C609.126 63.4902 607.35 63.4902 606.263 62.2529C606.263 62.2529 605.429 61.3432 603.544 60.5062C602.24 59.9967 600.899 59.7056 599.449 59.7056C593.65 59.7056 588.938 64.4727 588.938 70.2587C588.938 76.0447 593.65 80.7755 599.449 80.7755C601.297 80.7755 603.037 80.3024 604.523 79.5018C606.045 78.6284 606.372 78.2645 606.372 78.2645ZM133.235 78.0464C131.604 78.0464 130.263 76.7 130.263 75.0261V69.9315C130.263 68.3303 131.604 66.9839 133.235 66.9839H150.306C151.937 66.9839 153.278 65.601 153.278 63.9635V55.7029H161.107C162.303 48.0974 164.804 41.1833 168.465 34.8878V34.6695C168.465 33.0319 167.16 31.6855 165.529 31.6855H108.842C107.211 31.6855 105.87 33.0319 105.87 34.6695V104.757C105.87 106.358 107.211 107.704 108.842 107.704H173.104C166.507 99.4802 162.448 89.5093 160.926 78.0464H133.235ZM728.19 133.541L728.298 133.578V125.281L728.226 123.68V123.498L728.335 122.915C728.298 122.988 728.407 122.333 728.407 122.333C728.407 121.496 727.863 121.169 727.392 121.06C727.356 121.06 726.812 120.987 726.812 120.987C726.348 120.987 726.157 121.23 725.906 121.551L725.834 121.642L725.181 122.297L724.601 122.843L723.804 123.68C723.768 123.68 723.587 123.789 723.587 123.789C723.55 123.862 723.297 124.007 723.297 124.007L723.079 124.116L722.753 124.407L722.282 124.917L721.919 125.099C721.847 125.099 721.738 124.99 721.593 124.808L720.904 124.116L720.325 123.425L720.035 123.243L719.781 122.988L718.73 122.006L718.295 121.715L718.005 121.569L717.642 121.205C717.606 121.205 716.881 120.987 716.881 120.987L716.229 121.205L716.011 121.423L715.903 121.496L715.359 122.333L715.468 122.879L715.576 123.389V126.3L715.649 126.664V127.646L715.576 128.156V129.575L715.649 130.63V131.358L715.613 131.977V132.886L715.649 133.905L715.54 134.888V135.397C715.504 136.016 715.867 136.38 716.084 136.525L716.881 136.671C717.497 136.671 718.005 136.453 718.259 136.089L718.476 135.324L718.404 134.56L718.295 134.16V133.432L718.222 132.777L718.331 131.867V130.885C718.331 130.812 718.295 130.448 718.295 130.448V130.157L718.404 129.757V129.102L718.295 128.774C718.295 128.701 718.259 128.192 718.259 128.192L718.222 127.901V127.282L718.331 126.191L718.259 125.39V125.099C718.259 125.099 718.247 125.076 718.237 125.049C718.229 125.029 718.222 125.006 718.222 124.99L718.295 125.062L719.237 125.899L719.636 126.336L719.962 126.736L720.325 127.1L720.578 127.464C720.796 127.792 721.158 128.301 721.883 128.301C722.608 128.301 722.862 128.046 723.514 127.137L724.094 126.591L724.203 126.482L724.638 126.081L725.109 125.718C725.145 125.718 725.362 125.572 725.471 125.5C725.508 125.646 725.508 125.79 725.508 125.79V126.336L725.58 127.064C725.58 127.118 725.589 127.356 725.598 127.585L725.616 128.046L725.612 128.074C725.574 128.297 725.508 128.697 725.508 129.466L725.58 130.958V134.124L725.471 134.524L725.363 135.288L725.725 136.198C725.979 136.453 726.269 136.671 726.957 136.671C727.827 136.671 728.407 136.161 728.407 135.47L728.19 133.541ZM712.532 120.877L711.916 120.95L711.372 120.987H710.285L709.524 121.059L708.618 120.95H702.891C701.949 120.95 701.26 121.46 701.26 122.26C701.26 122.843 701.876 123.352 702.021 123.461L702.818 123.643H703.217C703.217 123.643 703.725 123.498 703.761 123.498H704.921C705.754 123.498 705.899 123.643 705.899 123.971L705.827 124.771V125.717L705.936 126.482V127.755L705.791 128.629V130.23L705.899 131.067L705.791 132.413V134.597C705.754 134.597 705.682 135.215 705.682 135.215C705.682 136.343 706.878 136.671 707.567 136.671C708.545 136.671 709.343 136.052 709.343 135.361L709.089 134.56L708.944 134.16V133.941L709.016 132.995V132.668L708.98 132.377L709.016 132.158V130.958L709.089 130.521V129.647L709.161 129.174L709.089 128.81V128.629L709.016 127.937V126.591L709.089 126.081L708.944 125.317V125.026L708.98 124.735V124.516L709.125 124.116L709.053 123.461H709.089L709.85 123.425H711.336L711.698 123.534L712.46 123.607C713.511 123.607 714.199 123.061 714.199 122.224C714.199 121.46 713.474 120.805 712.604 120.805L712.532 120.877Z" fill="black"/>
</g>
<defs>
<clipPath id="clip0_2_2">
<rect width="746" height="159" fill="white"/>
</clipPath>
</defs>
</svg>
