<svg width="172" height="70" viewBox="0 0 172 70" fill="none" xmlns="http://www.w3.org/2000/svg">
<path d="M53.8886 6.66667C42.5249 -0.888889 27.4746 -0.888889 16.1108 6.66667" stroke="black" stroke-width="2" stroke-miterlimit="10" stroke-linecap="round"/>
<path d="M21.1479 11.7036C29.6545 6.66652 40.3451 6.66652 48.8517 11.7036" stroke="black" stroke-width="2" stroke-miterlimit="10" stroke-linecap="round"/>
<path d="M63.333 53.8881C70.8886 42.4978 70.8886 27.5006 63.333 16.1104" stroke="black" stroke-width="2" stroke-miterlimit="10" stroke-linecap="round"/>
<path d="M57.666 21.1475C63.5426 29.654 63.5426 40.3446 57.666 48.8512" stroke="black" stroke-width="2" stroke-miterlimit="10" stroke-linecap="round"/>
<path d="M6.66667 16.1104C-0.888889 27.4741 -0.888889 42.5244 6.66667 53.8881" stroke="black" stroke-width="2" stroke-miterlimit="10" stroke-linecap="round"/>
<path d="M12.3332 48.8512C6.45665 40.3446 6.45665 29.654 12.3332 21.1475" stroke="black" stroke-width="2" stroke-miterlimit="10" stroke-linecap="round"/>
<path d="M16.1108 63.333C27.5011 70.8886 42.4983 70.8886 53.8886 63.333" stroke="black" stroke-width="2" stroke-miterlimit="10" stroke-linecap="round"/>
<path d="M48.8517 57.667C40.3451 62.704 29.6545 62.704 21.1479 57.667" stroke="black" stroke-width="2" stroke-miterlimit="10" stroke-linecap="round"/>
<path d="M48.8517 11.7036C40.3451 6.66652 29.6545 6.66652 21.1479 11.7036" stroke="black" stroke-width="2" stroke-miterlimit="10" stroke-linecap="round"/>
<path d="M26.1846 17.3703C31.5711 14.8518 37.7981 14.8518 43.1846 17.3703" stroke="black" stroke-width="2" stroke-miterlimit="10" stroke-linecap="round"/>
<path d="M57.666 48.8512C63.5426 40.3446 63.5426 29.654 57.666 21.1475" stroke="black" stroke-width="2" stroke-miterlimit="10" stroke-linecap="round"/>
<path d="M52.6294 26.1855C55.1479 31.5721 55.1479 37.799 52.6294 43.1855" stroke="black" stroke-width="2" stroke-miterlimit="10" stroke-linecap="round"/>
<path d="M12.3332 21.1475C6.45665 29.654 6.45665 40.3446 12.3332 48.8512" stroke="black" stroke-width="2" stroke-miterlimit="10" stroke-linecap="round"/>
<path d="M17.3703 43.1855C14.8518 37.799 14.8518 31.5721 17.3703 26.1855" stroke="black" stroke-width="2" stroke-miterlimit="10" stroke-linecap="round"/>
<path d="M21.1479 57.667C29.6545 62.704 40.3451 62.704 48.8517 57.667" stroke="black" stroke-width="2" stroke-miterlimit="10" stroke-linecap="round"/>
<path d="M43.1846 52.6299C37.7981 55.1484 31.5711 55.1484 26.1846 52.6299" stroke="black" stroke-width="2" stroke-miterlimit="10" stroke-linecap="round"/>
<path d="M43.1846 17.3703C37.7981 14.8518 31.5711 14.8518 26.1846 17.3703" stroke="black" stroke-width="2" stroke-miterlimit="10" stroke-linecap="round"/>
<path d="M52.6294 43.1855C55.1479 37.799 55.1479 31.5721 52.6294 26.1855" stroke="black" stroke-width="2" stroke-miterlimit="10" stroke-linecap="round"/>
<path d="M17.3703 26.1855C14.8518 31.5721 14.8518 37.799 17.3703 43.1855" stroke="black" stroke-width="2" stroke-miterlimit="10" stroke-linecap="round"/>
<path d="M26.1846 52.6299C31.5711 55.1484 37.7981 55.1484 43.1846 52.6299" stroke="black" stroke-width="2" stroke-miterlimit="10" stroke-linecap="round"/>
<g clip-path="url(#clip0_1152_7097)">
<path d="M89.5353 1C95.6693 1 99.3665 5.60308 99.3665 10.9175C99.3665 13.8049 98.2741 16.4412 96.2995 18.3243C97.1398 18.9938 97.9801 19.4542 98.9044 19.6634L97.9801 21.3791C97.2658 21.3372 95.8794 20.5003 94.661 19.5378C93.2325 20.3748 91.5099 20.8351 89.4933 20.8351C83.4013 20.8351 79.7041 16.232 79.7041 10.9175C79.7041 5.60308 83.4013 1 89.5353 1ZM94.5769 16.7342C96.0474 15.2695 96.8457 13.0935 96.8457 10.9175C96.8457 6.94215 94.2828 3.13415 89.5353 3.13415C84.7878 3.13415 82.2249 6.94215 82.2249 10.9175C82.2249 14.8929 84.7878 18.7009 89.5353 18.7009C90.7957 18.7009 91.8881 18.4498 92.8544 17.9477C92.1402 17.32 91.3419 16.7342 89.9975 16.1483L91.0478 14.5582C91.8881 14.8929 93.3585 15.8135 94.5769 16.7342Z" fill="black"/>
<path d="M109.492 20.8347C104.576 20.8347 102.35 17.6126 102.35 13.6372V1.45996H104.87V13.6372C104.87 16.3572 106.299 18.7006 109.492 18.7006C112.685 18.7006 114.113 16.3572 114.113 13.6372V1.45996H116.634V13.6372C116.634 17.6126 114.366 20.8347 109.492 20.8347Z" fill="black"/>
<path d="M118.315 20.3744L125.374 1.45996H128.525L135.583 20.3744H132.978L130.92 14.8507H122.979L120.878 20.3744H118.273H118.315ZM130.205 12.7584L127.012 3.67781H126.928L123.777 12.7584H130.205Z" fill="black"/>
<path d="M153.607 10.5824C153.607 16.1061 150.077 20.3744 143.985 20.3744H138.104V1.45996H143.817C150.035 1.45996 153.565 5.05873 153.565 10.5824H153.607ZM144.069 18.2403C147.935 18.2403 151.086 15.6458 151.086 10.5824C151.086 5.51904 147.935 3.55227 143.985 3.55227H140.666V18.2403H144.111H144.069Z" fill="black"/>
<path d="M86.5942 25.4385C89.9133 25.4385 91.9719 27.3634 91.9719 30.1252C91.9719 32.1757 91.2577 33.3474 89.7452 34.268C91.7198 35.0631 92.8962 36.4022 92.8962 39.0385C92.8962 42.428 90.4594 44.7714 86.4681 44.7714C82.4768 44.7714 80.4182 42.7628 80.04 39.2896V39.0385H82.5609V39.2059C82.7709 41.5492 84.2414 42.7628 86.5101 42.7628C89.115 42.7628 90.4594 41.0471 90.4594 38.9548C90.4594 36.4022 88.2327 35.5234 85.8799 35.5234H85.2917V33.2219C85.6699 33.2219 86.048 33.2219 86.3841 33.18C88.3167 33.0126 89.4931 32.2176 89.4931 30.4182C89.4931 28.6188 88.3587 27.4889 86.4261 27.4889C84.4935 27.4889 83.4852 28.6188 83.2751 30.0834V30.46H80.9223C81.0484 27.4889 83.107 25.4385 86.5942 25.4385Z" fill="black"/>
<path d="M101.887 25.3965C105.71 25.3965 107.391 27.4469 107.979 30.0833H105.584C105.122 28.8279 104.618 27.4051 102.055 27.4051C98.8203 27.4051 97.8119 30.8365 97.5178 34.0586C98.4841 32.7196 100.165 31.8408 102.391 31.8408C106.047 31.8408 108.609 34.7282 108.609 38.3688C108.609 42.0094 105.626 44.8131 101.887 44.8131C99.9126 44.8131 98.064 43.9762 96.8876 42.6789C95.5012 41.1306 95.123 38.7454 95.123 35.4396C95.123 30.5436 96.8876 25.4383 101.887 25.4383V25.3965ZM101.887 42.7626C104.324 42.7626 106.215 40.754 106.215 38.3269C106.215 35.8999 104.366 33.8913 101.887 33.8913C99.4084 33.8913 97.7279 35.6488 97.7279 38.3269C97.7279 40.754 99.4505 42.7626 101.887 42.7626Z" fill="black"/>
<path d="M117.727 25.4385C122.727 25.4385 124.491 30.1671 124.491 35.0212C124.491 39.8754 122.727 44.8132 117.727 44.8132C112.727 44.8132 110.963 39.8754 110.963 35.0212C110.963 30.1671 112.727 25.4385 117.727 25.4385ZM122.097 35.0212C122.097 31.5062 120.836 27.4889 117.727 27.4889C114.618 27.4889 113.358 31.5062 113.358 35.0212C113.358 38.5363 114.618 42.8046 117.727 42.8046C120.836 42.8046 122.097 38.5782 122.097 35.0212Z" fill="black"/>
<path d="M87.2254 66.907C89.4522 66.907 91.3848 65.8608 91.3848 63.5593C91.3848 61.2577 89.4102 60.8393 87.0154 60.1279C83.8643 59.2073 80.6713 58.2867 80.5873 54.6879C80.5033 51.0473 83.5282 49.2061 86.9734 49.2061C90.7966 49.2061 93.2754 51.131 93.5695 54.8971H91.0067C90.6706 52.5119 89.4522 51.3402 86.9734 51.3402C84.8727 51.3402 83.1081 52.219 83.1081 54.5205C83.1081 56.4454 84.9567 57.1987 87.4775 57.9101C90.6285 58.7888 93.9056 59.5002 93.9056 63.5174C93.9056 67.5347 90.6285 69.0411 87.2254 69.0411C83.0661 69.0411 79.9151 67.0744 79.873 62.7224H82.3939C82.5199 65.5679 84.4525 66.907 87.2254 66.907Z" fill="black"/>
<path d="M115.794 59.0826C115.794 64.397 112.097 69.0001 105.963 69.0001C99.829 69.0001 96.1318 64.397 96.1318 59.0826C96.1318 53.7681 99.829 49.165 105.963 49.165C112.097 49.165 115.794 53.7681 115.794 59.0826ZM105.963 66.866C110.711 66.866 113.273 63.058 113.273 59.0826C113.273 55.1072 110.711 51.2992 105.963 51.2992C101.215 51.2992 98.6527 55.1072 98.6527 59.0826C98.6527 63.058 101.215 66.866 105.963 66.866Z" fill="black"/>
<path d="M125.919 68.9998C121.003 68.9998 118.776 65.7776 118.776 61.8022V49.625H121.297V61.8022C121.297 64.5222 122.726 66.8656 125.919 66.8656C129.112 66.8656 130.54 64.5222 130.54 61.8022V49.625H133.061V61.8022C133.061 65.7776 130.792 68.9998 125.919 68.9998Z" fill="black"/>
<path d="M140.078 49.625L147.472 61.593C148.186 62.7228 148.859 63.8945 149.615 65.0244C149.615 63.7272 149.573 62.5555 149.573 61.2582V49.625H152.094V68.5395H148.943L141.59 56.6552C140.876 55.5253 140.246 54.3955 139.532 53.3075C139.532 54.6465 139.574 55.8601 139.574 57.1992V68.5395H137.053V49.625H140.12H140.078Z" fill="black"/>
<path d="M171.63 58.7895C171.63 64.3131 168.101 68.5815 162.009 68.5815H156.127V49.667H161.841C168.059 49.667 171.588 53.2658 171.588 58.7895H171.63ZM162.093 66.4473C165.958 66.4473 169.109 63.8528 169.109 58.7895C169.109 53.7261 165.958 51.7593 162.009 51.7593H158.69V66.4473H162.135H162.093Z" fill="black"/>
<path d="M129.742 32.0923C127.6 32.0923 125.877 30.3347 125.877 28.2424C125.877 26.1501 127.642 24.3926 129.742 24.3926C131.843 24.3926 133.607 26.1083 133.607 28.2424C133.607 30.3766 131.885 32.0923 129.742 32.0923ZM129.742 26.3593C128.692 26.3593 127.852 27.1963 127.852 28.2424C127.852 29.2886 128.692 30.1255 129.742 30.1255C130.793 30.1255 131.633 29.2886 131.633 28.2424C131.633 27.1963 130.793 26.3593 129.742 26.3593Z" fill="#231F20"/>
</g>
<defs>
<clipPath id="clip0_1152_7097">
<rect width="91.9259" height="68" fill="white" transform="translate(79.7041 1)"/>
</clipPath>
</defs>
</svg>
