<svg width="120" height="120" viewBox="0 0 120 120" fill="none" xmlns="http://www.w3.org/2000/svg">
<path d="M34 49.1328C34 47.476 35.3431 46.1328 37 46.1328L65.2 46.1328L65.2 73.8661L37 73.8661C35.3431 73.8661 34 72.523 34 70.8661L34 49.1328Z" stroke="black" stroke-width="2"/>
<path d="M65.2002 46.1328L78.6669 46.1328C80.3237 46.1328 81.6669 47.476 81.6669 49.1328L81.6669 70.8661C81.6669 72.523 80.3237 73.8661 78.6669 73.8661L65.2002 73.8661L65.2002 46.1328Z" stroke="black" stroke-width="2"/>
<path d="M81.667 54.7998L84.0003 54.7998C85.1049 54.7998 86.0003 55.6952 86.0003 56.7998L86.0003 63.1998C86.0003 64.3044 85.1049 65.1998 84.0003 65.1998L81.667 65.1998L81.667 54.7998Z" stroke="black" stroke-width="2"/>
<path d="M100.444 37.4659C100.978 37.6089 101.526 37.2923 101.669 36.7588L103.999 28.0655C104.142 27.532 103.825 26.9837 103.291 26.8407C102.758 26.6978 102.21 27.0144 102.067 27.5478L99.9962 35.2752L92.2687 33.2047C91.7353 33.0618 91.1869 33.3783 91.044 33.9118C90.9011 34.4453 91.2176 34.9936 91.7511 35.1365L100.444 37.4659ZM18.4308 36C18.1547 36.4783 18.3186 37.0899 18.7969 37.366C19.2752 37.6422 19.8868 37.4783 20.1629 37L18.4308 36ZM101.569 36C97.3564 28.7031 91.297 22.6437 84.0001 18.4308L83.0001 20.1628C89.993 24.2002 95.7999 30.0071 99.8372 37L101.569 36ZM84.0001 18.4308C76.7031 14.2179 68.4258 12 60.0001 12V14C68.0748 14 76.0072 16.1255 83.0001 20.1628L84.0001 18.4308ZM60.0001 12C51.5743 12 43.297 14.2179 36.0001 18.4308L37.0001 20.1628C43.9929 16.1255 51.9254 14 60.0001 14V12ZM36.0001 18.4308C28.7031 22.6437 22.6437 28.7031 18.4308 36L20.1629 37C24.2002 30.0071 30.0072 24.2002 37.0001 20.1628L36.0001 18.4308Z" fill="black"/>
<path d="M19.5557 82.5341C19.0222 82.3911 18.4739 82.7077 18.3309 83.2412L16.0016 91.9345C15.8586 92.468 16.1752 93.0163 16.7087 93.1593C17.2422 93.3022 17.7905 92.9856 17.9334 92.4522L20.004 84.7248L27.7314 86.7953C28.2649 86.9382 28.8132 86.6217 28.9561 86.0882C29.0991 85.5547 28.7825 85.0064 28.249 84.8635L19.5557 82.5341ZM83.5001 100.703L83.0001 99.8372L83.5001 100.703ZM101.569 84C101.845 83.5217 101.682 82.9101 101.203 82.634C100.725 82.3578 100.113 82.5217 99.8372 83L101.569 84ZM18.4308 84C22.6437 91.2969 28.7031 97.3563 36.0001 101.569L37.0001 99.8372C30.0072 95.7998 24.2002 89.9929 20.1629 83L18.4308 84ZM36.0001 101.569C43.297 105.782 51.5743 108 60.0001 108V106C51.9254 106 43.993 103.875 37.0001 99.8372L36.0001 101.569ZM60.0001 108C68.4258 108 76.7032 105.782 84.0001 101.569L83.0001 99.8372C76.0072 103.875 68.0748 106 60.0001 106V108ZM84.0001 101.569C91.297 97.3563 97.3564 91.2969 101.569 84L99.8372 83C95.7999 89.9929 89.993 95.7998 83.0001 99.8372L84.0001 101.569Z" fill="black"/>
</svg>
