<svg width="120" height="120" viewBox="0 0 120 120" fill="none" xmlns="http://www.w3.org/2000/svg">
<path fill-rule="evenodd" clip-rule="evenodd" d="M40.2902 109.383C40.6817 108.993 41.3148 108.995 41.7045 109.386C44.1075 111.8 46.9601 113.715 50.0993 115.021C53.2384 116.327 56.6028 117 60.0003 117C63.3978 117 66.7622 116.327 69.9013 115.021C73.0405 113.715 75.8931 111.8 78.2962 109.386C78.6858 108.995 79.319 108.993 79.7104 109.383C80.1018 109.773 80.1032 110.406 79.7136 110.797C77.1252 113.397 74.0521 115.46 70.6697 116.868C67.2872 118.275 63.6617 119 60.0003 119C56.3389 119 52.7134 118.275 49.3309 116.868C45.9485 115.46 42.8754 113.397 40.287 110.797C39.8974 110.406 39.8988 109.773 40.2902 109.383ZM60.0003 1.00293C56.3389 1.00293 52.7134 1.72739 49.3309 3.13482C45.9485 4.54225 42.8754 6.60504 40.287 9.20517C39.8974 9.59658 39.8988 10.2297 40.2902 10.6194C40.6817 11.009 41.3148 11.0076 41.7045 10.6162C44.1075 8.20218 46.9601 6.28754 50.0993 4.98135C53.2384 3.67516 56.6028 3.00293 60.0003 3.00293C63.3978 3.00293 66.7622 3.67516 69.9013 4.98135C73.0405 6.28754 75.8931 8.20218 78.2962 10.6162C78.6858 11.0076 79.319 11.009 79.7104 10.6194C80.1018 10.2297 80.1032 9.59658 79.7136 9.20517C77.1252 6.60504 74.0521 4.54225 70.6697 3.13482C67.2872 1.72739 63.6617 1.00293 60.0003 1.00293ZM60.0004 14.0029C58.0383 14.0029 56.0956 14.3911 54.2831 15.1453C52.4707 15.8995 50.8241 17.0047 49.4374 18.3977C49.0478 18.7892 49.0492 19.4223 49.4406 19.812C49.832 20.2016 50.4652 20.2002 50.8548 19.8087C52.0563 18.6019 53.4823 17.6447 55.0515 16.9918C56.6206 16.3389 58.3022 16.0029 60.0004 16.0029C61.6985 16.0029 63.3801 16.3389 64.9493 16.9918C66.5184 17.6447 67.9444 18.6019 69.1459 19.8087C69.5355 20.2002 70.1687 20.2016 70.5601 19.812C70.9515 19.4223 70.9529 18.7891 70.5633 18.3977C69.1766 17.0047 67.53 15.8995 65.7176 15.1453C63.9051 14.3911 61.9624 14.0029 60.0004 14.0029ZM51.9976 9.602C54.5347 8.54633 57.2541 8.00293 60.0004 8.00293C62.7468 8.00293 65.4662 8.54633 68.0033 9.602C70.5403 10.6577 72.8453 12.2049 74.7866 14.155C75.1763 14.5464 75.1748 15.1796 74.7834 15.5692C74.392 15.9589 73.7588 15.9574 73.3692 15.566C71.6132 13.802 69.5287 12.403 67.2349 11.4485C64.9412 10.4941 62.4829 10.0029 60.0004 10.0029C57.518 10.0029 55.0597 10.4941 52.7659 11.4485C50.4722 12.403 48.3877 13.802 46.6317 15.566C46.2421 15.9574 45.6089 15.9589 45.2175 15.5692C44.8261 15.1796 44.8246 14.5464 45.2143 14.155C47.1556 12.2049 49.4605 10.6577 51.9976 9.602ZM50.8548 100.194C50.4652 99.8025 49.832 99.8011 49.4406 100.191C49.0492 100.58 49.0478 101.214 49.4374 101.605C50.8241 102.998 52.4707 104.103 54.2831 104.857C56.0956 105.612 58.0383 106 60.0004 106C61.9624 106 63.9051 105.612 65.7176 104.857C67.53 104.103 69.1766 102.998 70.5633 101.605C70.9529 101.214 70.9515 100.58 70.5601 100.191C70.1687 99.8011 69.5355 99.8025 69.1459 100.194C67.9444 101.401 66.5184 102.358 64.9493 103.011C63.3801 103.664 61.6985 104 60.0004 104C58.3022 104 56.6206 103.664 55.0515 103.011C53.4823 102.358 52.0563 101.401 50.8548 100.194ZM46.6317 104.437C46.2421 104.046 45.6089 104.044 45.2175 104.434C44.8261 104.824 44.8246 105.457 45.2143 105.848C47.1556 107.798 49.4605 109.345 51.9976 110.401C54.5347 111.457 57.2541 112 60.0004 112C62.7468 112 65.4662 111.457 68.0033 110.401C70.5403 109.345 72.8453 107.798 74.7866 105.848C75.1763 105.457 75.1748 104.824 74.7834 104.434C74.392 104.044 73.7588 104.046 73.3692 104.437C71.6132 106.201 69.5287 107.6 67.2349 108.555C64.9412 109.509 62.4829 110 60.0004 110C57.518 110 55.0597 109.509 52.7659 108.555C50.4722 107.6 48.3877 106.201 46.6317 104.437Z" fill="black"/>
<path d="M69 63L53 63L59.5 69.5" stroke="black" stroke-width="2" stroke-linecap="round" stroke-linejoin="round"/>
<path d="M53 57L69 57L62.5 50.5" stroke="black" stroke-width="2" stroke-linecap="round" stroke-linejoin="round"/>
<path d="M100 80H104" stroke="black" stroke-width="1.5" stroke-linecap="round"/>
<path d="M86.7584 54.167H90.6071C90.9231 54.167 91.1824 54.4263 91.1824 54.7423V56.2939C91.1824 56.6099 90.9231 56.8692 90.6071 56.8692H86.7584C86.4424 56.8692 86.1831 56.614 86.1831 56.2939V54.7423C86.1831 54.4263 86.4424 54.167 86.7584 54.167Z" fill="white" stroke="black" stroke-linecap="round" stroke-linejoin="round"/>
<path d="M83.0276 83.7005C82.7238 83.7735 82.4078 83.8099 82.0837 83.8099C79.8312 83.8099 78 81.9828 78 79.7263C78 77.4697 79.8271 75.6426 82.0837 75.6426C84.3402 75.6426 86.1674 77.4697 86.1674 79.7263C86.1674 80.4474 86.0093 81.1401 85.6528 81.7073C84.8223 83.0402 83.607 81.6587 83.8824 80.7472L83.9067 80.6742C83.9675 80.496 83.9959 80.3056 83.9797 80.1111C83.927 79.3211 83.2423 78.7256 82.4564 78.7783C81.6664 78.8309 81.0709 79.5156 81.1235 80.3015C81.1762 81.0915 81.8609 81.6871 82.6509 81.6344L82.6995 81.6506C82.6995 81.6506 83.5583 81.6506 83.7487 82.469C83.9797 83.4696 83.0317 83.6965 83.0317 83.6965L83.0276 83.7005Z" fill="white" stroke="black" stroke-linecap="round" stroke-linejoin="round"/>
<path d="M88.299 53.5085L88.3274 58.9089C84.2072 62.9601 85.0904 76.6534 85.0904 76.6534L78.7097 77.1598C78.1708 61.4247 81.4686 55.5666 84.4098 53.306C84.4098 53.306 87.8534 50.4701 88.299 53.5085Z" fill="white" stroke="black" stroke-linecap="round" stroke-linejoin="round"/>
<path d="M105.397 54.167H109.246C109.562 54.167 109.821 54.4263 109.821 54.7423V56.2939C109.821 56.6099 109.562 56.8692 109.246 56.8692H105.397C105.081 56.8692 104.822 56.614 104.822 56.2939V54.7423C104.822 54.4263 105.081 54.167 105.397 54.167Z" fill="white" stroke="black" stroke-linecap="round" stroke-linejoin="round"/>
<path d="M112.972 83.7005C113.276 83.7735 113.592 83.8099 113.916 83.8099C116.169 83.8099 118 81.9828 118 79.7263C118 77.4697 116.173 75.6426 113.916 75.6426C111.66 75.6426 109.833 77.4697 109.833 79.7263C109.833 80.4474 109.991 81.1401 110.347 81.7073C111.178 83.0402 112.393 81.6587 112.117 80.7472L112.093 80.6742C112.032 80.496 112.004 80.3056 112.02 80.1111C112.073 79.3211 112.758 78.7256 113.543 78.7783C114.333 78.8309 114.929 79.5156 114.876 80.3015C114.824 81.0915 114.139 81.6871 113.349 81.6344L113.3 81.6506C113.3 81.6506 112.442 81.6506 112.251 82.469C112.02 83.4696 112.968 83.6965 112.968 83.6965L112.972 83.7005Z" fill="white" stroke="black" stroke-linecap="round" stroke-linejoin="round"/>
<path d="M107.706 53.5085L107.677 58.9089C111.797 62.9601 110.914 76.6534 110.914 76.6534L117.295 77.1598C117.834 61.4247 114.536 55.5666 111.595 53.306C111.595 53.306 108.151 50.4701 107.706 53.5085Z" fill="white" stroke="black" stroke-linecap="round" stroke-linejoin="round"/>
<path d="M87.3141 33.0974C87.3141 33.0974 76.6228 31.9509 82.1974 23.107C82.1974 23.107 85.6734 17.4433 90.9238 21.4095C90.9238 21.4095 92.9251 22.9854 93.2209 24.8531C93.5288 26.8017 87.3141 33.1014 87.3141 33.1014V33.0974Z" fill="white" stroke="black" stroke-linecap="round" stroke-linejoin="round"/>
<path d="M108.692 33.0974C108.692 33.0974 119.384 31.9509 113.809 23.107C113.809 23.107 110.333 17.4433 105.083 21.4095C105.083 21.4095 103.081 22.9854 102.785 24.8531C102.478 26.8017 108.692 33.1014 108.692 33.1014V33.0974Z" fill="white" stroke="black" stroke-linecap="round" stroke-linejoin="round"/>
<path d="M102.956 77.0902C99.7679 77.0902 99.7234 79.918 99.7234 79.918V85.0347C99.7234 85.3507 99.4681 85.61 99.1481 85.61H96.851C96.535 85.61 96.2757 85.3507 96.2757 85.0347V79.918C96.2757 79.918 96.3203 77.0902 92.9253 77.0902H89.2022C88.8862 77.0902 88.627 76.835 88.627 76.5149V74.2179C88.627 73.9019 88.8822 73.6426 89.2022 73.6426H106.793C107.109 73.6426 107.368 73.8978 107.368 74.2179V76.5149C107.368 76.8309 107.113 77.0902 106.793 77.0902H102.952H102.956Z" fill="white" stroke="black" stroke-linecap="round" stroke-linejoin="round"/>
<path d="M97.2265 90.6246V101.259C97.2265 101.575 96.9713 101.834 96.6512 101.834H87.463C87.147 101.834 86.8877 101.579 86.8877 101.259V81.8212C86.8877 81.8212 86.8877 78.2764 90.4326 78.2764H92.7094C92.7094 78.2764 95.8491 78.325 95.8491 81.4161V88.9555C95.8491 88.9555 95.8977 89.8144 96.7606 89.9157C96.7606 89.9157 97.2265 90.0656 97.2225 90.6246H97.2265Z" fill="white" stroke="black" stroke-linecap="round" stroke-linejoin="round"/>
<path d="M98.7739 90.6246V101.259C98.7739 101.575 99.0292 101.834 99.3492 101.834H108.537C108.853 101.834 109.113 101.579 109.113 101.259V81.8212C109.113 81.8212 109.113 78.2764 105.568 78.2764H103.291C103.291 78.2764 100.151 78.325 100.151 81.4161V88.9555C100.151 88.9555 100.103 89.8144 99.2398 89.9157C99.2398 89.9157 98.7739 90.0656 98.778 90.6246H98.7739Z" fill="white" stroke="black" stroke-linecap="round" stroke-linejoin="round"/>
<path d="M96.6637 101.81C96.6637 98.784 94.557 96.333 91.9561 96.333C89.3552 96.333 87.2485 98.784 87.2485 101.81H96.6637Z" fill="white" stroke="black" stroke-linecap="round" stroke-linejoin="round"/>
<path d="M91.8714 99.4604C92.941 99.4604 93.8039 98.8851 93.8039 98.1721C93.8039 97.4591 92.9369 96.8838 91.8714 96.8838C90.8059 96.8838 89.939 97.4591 89.939 98.1721C89.939 98.8851 90.8059 99.4604 91.8714 99.4604Z" fill="white" stroke="black" stroke-linecap="round" stroke-linejoin="round"/>
<path d="M108.594 101.81C108.594 98.784 106.488 96.333 103.887 96.333C101.286 96.333 99.1792 98.784 99.1792 101.81H108.594Z" fill="white" stroke="black" stroke-linecap="round" stroke-linejoin="round"/>
<path d="M103.903 99.4604C104.972 99.4604 105.835 98.8851 105.835 98.1721C105.835 97.4591 104.968 96.8838 103.903 96.8838C102.837 96.8838 101.97 97.4591 101.97 98.1721C101.97 98.8851 102.837 99.4604 103.903 99.4604Z" fill="white" stroke="black" stroke-linecap="round" stroke-linejoin="round"/>
<path d="M109.596 40.911C108.769 38.3951 108.891 35.1541 108.891 35.1541C108.453 23.4257 98.5357 24.078 98.0009 24.1185C97.4621 24.0739 87.5446 23.4217 87.1111 35.1541C87.1111 35.1541 87.2367 38.3992 86.4062 40.911C85.1098 44.8488 86.629 48.973 91.1219 50.4274C93.4959 51.1971 95.5823 51.7279 98.005 51.7116C100.424 51.7279 102.514 51.1971 104.888 50.4274C109.377 48.9689 110.896 44.8488 109.604 40.911H109.596Z" fill="white" stroke="black" stroke-linecap="round" stroke-linejoin="round"/>
<path d="M99.8439 41.1954C99.8439 41.8233 99.0174 42.7227 98.0005 42.7227C96.9837 42.7227 96.1572 41.8274 96.1572 41.1954C96.1572 40.5634 96.9837 40.5391 98.0005 40.5391C99.0174 40.5391 99.8439 40.5634 99.8439 41.1954Z" fill="white" stroke="black" stroke-linecap="round" stroke-linejoin="round"/>
<path d="M108.562 64.2478C107.302 58.7907 107.188 52.2804 107.188 52.2804C107.188 51.9644 106.933 51.7051 106.613 51.7051H89.3871C89.0711 51.7051 88.8118 51.9603 88.8118 52.2804C88.8118 52.2804 88.6984 58.7907 87.4384 64.2478C86.1785 69.7048 86.5472 71.0458 88.8118 73.5252H107.184C109.449 71.0458 109.818 69.7048 108.558 64.2478H108.562Z" fill="white" stroke="black" stroke-linecap="round" stroke-linejoin="round"/>
<path d="M10.7584 54.0293H14.6071C14.9231 54.0293 15.1824 54.2886 15.1824 54.6046V56.1562C15.1824 56.4722 14.9231 56.7315 14.6071 56.7315H10.7584C10.4424 56.7315 10.1831 56.4763 10.1831 56.1562V54.6046C10.1831 54.2886 10.4424 54.0293 10.7584 54.0293Z" fill="black" stroke="white" stroke-linecap="round" stroke-linejoin="round"/>
<path d="M7.02764 83.5629C6.7238 83.6358 6.40779 83.6723 6.08369 83.6723C3.83118 83.6723 2 81.8451 2 79.5886C2 77.332 3.82713 75.5049 6.08369 75.5049C8.34026 75.5049 10.1674 77.332 10.1674 79.5886C10.1674 80.3097 10.0094 81.0025 9.65287 81.5697C8.82236 82.9025 7.60698 81.521 7.88246 80.6095L7.90677 80.5366C7.96754 80.3583 7.9959 80.1679 7.97969 79.9734C7.92703 79.1834 7.24236 78.5879 6.45641 78.6406C5.66641 78.6932 5.07087 79.3779 5.12354 80.1639C5.1762 80.9539 5.86087 81.5494 6.65087 81.4967L6.69949 81.5129C6.69949 81.5129 7.55836 81.5129 7.74877 82.3313C7.97969 83.332 7.03169 83.5588 7.03169 83.5588L7.02764 83.5629Z" fill="black" stroke="white" stroke-linecap="round" stroke-linejoin="round"/>
<path d="M12.299 53.3699L12.3274 58.7702C8.20725 62.8215 9.09043 76.5148 9.09043 76.5148L2.70967 77.0212C2.17084 61.2861 5.46859 55.4279 8.40982 53.1673C8.40982 53.1673 11.8534 50.3314 12.299 53.3699Z" fill="black" stroke="white" stroke-linecap="round" stroke-linejoin="round"/>
<path d="M29.3971 54.0293H33.2458C33.5618 54.0293 33.8211 54.2886 33.8211 54.6046V56.1562C33.8211 56.4722 33.5618 56.7315 33.2458 56.7315H29.3971C29.0811 56.7315 28.8218 56.4763 28.8218 56.1562V54.6046C28.8218 54.2886 29.0811 54.0293 29.3971 54.0293Z" fill="black" stroke="white" stroke-linecap="round" stroke-linejoin="round"/>
<path d="M36.9723 83.5629C37.2761 83.6358 37.5921 83.6723 37.9162 83.6723C40.1687 83.6723 41.9999 81.8451 41.9999 79.5886C41.9999 77.332 40.1728 75.5049 37.9162 75.5049C35.6596 75.5049 33.8325 77.332 33.8325 79.5886C33.8325 80.3097 33.9905 81.0025 34.347 81.5697C35.1775 82.9025 36.3929 81.521 36.1174 80.6095L36.0931 80.5366C36.0324 80.3583 36.004 80.1679 36.0202 79.9734C36.0729 79.1834 36.7575 78.5879 37.5435 78.6406C38.3335 78.6932 38.929 79.3779 38.8764 80.1639C38.8237 80.9539 38.139 81.5494 37.349 81.4967L37.3004 81.5129C37.3004 81.5129 36.4415 81.5129 36.2511 82.3313C36.0202 83.332 36.9682 83.5588 36.9682 83.5588L36.9723 83.5629Z" fill="black" stroke="white" stroke-linecap="round" stroke-linejoin="round"/>
<path d="M31.7056 53.3699L31.6772 58.7702C35.7974 62.8215 34.9142 76.5148 34.9142 76.5148L41.295 77.0212C41.8338 61.2861 38.5361 55.4279 35.5948 53.1673C35.5948 53.1673 32.1512 50.3314 31.7056 53.3699Z" fill="black" stroke="white" stroke-linecap="round" stroke-linejoin="round"/>
<path d="M11.3141 32.9598C11.3141 32.9598 0.622816 31.8132 6.19738 22.9693C6.19738 22.9693 9.67338 17.3056 14.9238 21.2718C14.9238 21.2718 16.9252 22.8478 17.2209 24.7154C17.5288 26.6641 11.3141 32.9638 11.3141 32.9638V32.9598Z" fill="black" stroke="white" stroke-linecap="round" stroke-linejoin="round"/>
<path d="M32.6923 32.9598C32.6923 32.9598 43.3836 31.8132 37.809 22.9693C37.809 22.9693 34.333 17.3056 29.0826 21.2718C29.0826 21.2718 27.0812 22.8478 26.7855 24.7154C26.4776 26.6641 32.6923 32.9638 32.6923 32.9638V32.9598Z" fill="black" stroke="white" stroke-linecap="round" stroke-linejoin="round"/>
<path d="M26.9568 76.9525C23.7685 76.9525 23.7239 79.7803 23.7239 79.7803V84.8971C23.7239 85.2131 23.4687 85.4724 23.1486 85.4724H20.8515C20.5355 85.4724 20.2763 85.2131 20.2763 84.8971V79.7803C20.2763 79.7803 20.3208 76.9525 16.9259 76.9525H13.2027C12.8867 76.9525 12.6274 76.6973 12.6274 76.3772V74.0802C12.6274 73.7642 12.8827 73.5049 13.2027 73.5049H30.7934C31.1094 73.5049 31.3687 73.7601 31.3687 74.0802V76.3772C31.3687 76.6932 31.1134 76.9525 30.7934 76.9525H26.9528H26.9568Z" fill="black" stroke="white" stroke-linecap="round" stroke-linejoin="round"/>
<path d="M21.2271 90.488V101.123C21.2271 101.439 20.9718 101.698 20.6518 101.698H11.4635C11.1475 101.698 10.8882 101.443 10.8882 101.123V81.6845C10.8882 81.6845 10.8882 78.1396 14.4331 78.1396H16.7099C16.7099 78.1396 19.8496 78.1883 19.8496 81.2794V88.8188C19.8496 88.8188 19.8982 89.6777 20.7612 89.779C20.7612 89.779 21.227 89.9289 21.223 90.488H21.2271Z" fill="black" stroke="white" stroke-linecap="round" stroke-linejoin="round"/>
<path d="M22.7749 90.488V101.123C22.7749 101.439 23.0301 101.698 23.3502 101.698H32.5385C32.8545 101.698 33.1138 101.443 33.1138 101.123V81.6845C33.1138 81.6845 33.1138 78.1396 29.5689 78.1396H27.2921C27.2921 78.1396 24.1523 78.1883 24.1523 81.2794V88.8188C24.1523 88.8188 24.1037 89.6777 23.2408 89.779C23.2408 89.779 22.7749 89.9289 22.779 90.488H22.7749Z" fill="black" stroke="white" stroke-linecap="round" stroke-linejoin="round"/>
<path d="M20.6642 101.675C20.6642 98.6483 18.5575 96.1973 15.9566 96.1973C13.3557 96.1973 11.249 98.6483 11.249 101.675H20.6642Z" fill="black" stroke="white" stroke-linecap="round" stroke-linejoin="round"/>
<path d="M15.8714 99.3237C16.941 99.3237 17.8039 98.7484 17.8039 98.0354C17.8039 97.3223 16.9369 96.7471 15.8714 96.7471C14.8059 96.7471 13.939 97.3223 13.939 98.0354C13.939 98.7484 14.8059 99.3237 15.8714 99.3237Z" fill="black" stroke="white" stroke-linecap="round" stroke-linejoin="round"/>
<path d="M32.5949 101.675C32.5949 98.6483 30.4882 96.1973 27.8873 96.1973C25.2864 96.1973 23.1797 98.6483 23.1797 101.675H32.5949Z" fill="black" stroke="white" stroke-linecap="round" stroke-linejoin="round"/>
<path d="M27.9027 99.3237C28.9722 99.3237 29.8351 98.7484 29.8351 98.0354C29.8351 97.3223 28.9682 96.7471 27.9027 96.7471C26.8372 96.7471 25.9702 97.3223 25.9702 98.0354C25.9702 98.7484 26.8372 99.3237 27.9027 99.3237Z" fill="black" stroke="white" stroke-linecap="round" stroke-linejoin="round"/>
<path d="M33.5958 40.7724C32.7693 38.2565 32.8908 35.0155 32.8908 35.0155C32.4533 23.287 22.5358 23.9393 22.001 23.9798C21.4622 23.9352 11.5446 23.283 11.1111 35.0155C11.1111 35.0155 11.2367 38.2606 10.4062 40.7724C9.10981 44.7102 10.629 48.8344 15.1219 50.2888C17.496 51.0586 19.5824 51.5893 22.005 51.5731C24.4237 51.5893 26.5141 51.0586 28.8882 50.2888C33.377 48.8304 34.8962 44.7102 33.6039 40.7724H33.5958Z" fill="black" stroke="white" stroke-linecap="round" stroke-linejoin="round"/>
<path d="M23.8439 41.0577C23.8439 41.6856 23.0174 42.585 22.0006 42.585C20.9837 42.585 20.1572 41.6897 20.1572 41.0577C20.1572 40.4257 20.9837 40.4014 22.0006 40.4014C23.0174 40.4014 23.8439 40.4257 23.8439 41.0577Z" fill="black" stroke="white" stroke-linecap="round" stroke-linejoin="round"/>
<path d="M32.5618 64.1101C31.3019 58.6531 31.1884 52.1427 31.1884 52.1427C31.1884 51.8267 30.9332 51.5674 30.6132 51.5674H13.3871C13.0711 51.5674 12.8118 51.8226 12.8118 52.1427C12.8118 52.1427 12.6984 58.6531 11.4384 64.1101C10.1785 69.5672 10.5472 70.9082 12.8118 73.3876H31.1844C33.449 70.9082 33.8177 69.5672 32.5578 64.1101H32.5618Z" fill="black" stroke="white" stroke-linecap="round" stroke-linejoin="round"/>
</svg>
