<svg width="120" height="120" viewBox="0 0 120 120" fill="none" xmlns="http://www.w3.org/2000/svg">
<rect x="21" y="46" width="78" height="28" rx="14" stroke="black" stroke-width="2"/>
<rect x="10" y="10" width="100" height="100" rx="20" stroke="black" stroke-width="1.5"/>
<rect x="29" y="54" width="62" height="12" rx="6" fill="black"/>
<path d="M49.9139 27.48H51.0299V33.156C51.0299 34.416 51.6419 35.244 52.8539 35.244C54.0899 35.244 54.6059 34.416 54.6059 33.156V27.48H55.7219V33.156C55.7219 34.92 54.8579 36.204 52.8539 36.204C50.8739 36.204 49.9139 34.92 49.9139 33.156V27.48ZM60.5953 36.204C58.5433 36.204 57.6433 34.956 57.4393 33.552L58.5193 33.336C58.7113 34.356 59.2873 35.268 60.5833 35.268C61.3873 35.268 62.3233 34.992 62.3233 33.912C62.3233 32.784 61.6153 32.52 60.9433 32.34L59.8033 32.04C58.6033 31.716 57.7033 30.996 57.7033 29.676C57.7033 28.416 58.7593 27.276 60.4153 27.276C61.9753 27.276 63.2353 27.924 63.4033 29.664L62.3353 29.976C62.2273 28.632 61.3633 28.212 60.4513 28.212C59.2033 28.212 58.8433 28.944 58.8433 29.58C58.8433 30.336 59.4313 30.816 60.1513 31.02L61.2433 31.308C62.3833 31.608 63.4633 32.112 63.4633 33.756C63.4633 34.956 62.6233 36.204 60.5953 36.204ZM68.2647 27.48C70.4607 27.48 71.0367 28.74 71.0367 29.748C71.0367 30.552 70.5807 31.296 69.6087 31.572C70.6287 31.752 71.2767 32.496 71.2767 33.66C71.2767 34.752 70.6287 36 68.5167 36H65.5407V27.48H68.2647ZM66.6567 28.404V31.2H68.2527C69.6687 31.2 69.8967 30.444 69.8967 29.832C69.8967 29.124 69.5847 28.404 68.2527 28.404H66.6567ZM66.6567 32.112V35.076H68.4447C69.7287 35.076 70.1367 34.356 70.1367 33.552C70.1367 32.736 69.6807 32.112 68.5647 32.112H66.6567Z" fill="black"/>
<path d="M37.5438 84.48H44.0238V85.44H41.3478V93H40.2198V85.44H37.5438V84.48ZM49.0412 89.604V93H47.9252V89.604L45.1532 84.48H46.3892L48.4772 88.68L50.5652 84.48H51.8012L49.0412 89.604ZM54.8746 89.52V93H53.7586V84.48H56.5426C58.8346 84.48 59.3746 85.872 59.3746 87C59.3746 88.128 58.7266 89.52 56.3386 89.52H54.8746ZM54.8746 88.608H56.3626C57.8866 88.608 58.1986 87.708 58.1986 87.012C58.1986 86.316 57.9106 85.416 56.4826 85.416H54.8746V88.608ZM66.36 84.48V85.44H62.496V88.164H66.156V89.1H62.496V92.04H66.444V93H61.38V84.48H66.36ZM79.1668 93.204C77.1388 93.204 76.1308 91.656 76.1308 89.052V88.428C76.1308 85.824 77.2228 84.276 79.2628 84.276C81.0388 84.276 82.0468 85.248 82.2628 87.276L81.1468 87.456C81.0508 86.064 80.4268 85.236 79.2508 85.236C77.9188 85.236 77.2828 86.208 77.2828 88.368V88.98C77.2828 91.14 77.9668 92.244 79.2508 92.244C80.4388 92.244 81.0508 91.416 81.1468 90.012L82.2508 90.24C82.0708 91.92 81.1348 93.204 79.1668 93.204Z" fill="black"/>
</svg>
